<svg viewBox="0 0 287 287" xmlns="http://www.w3.org/2000/svg" xmlns:xlink="http://www.w3.org/1999/xlink"><defs><filter id="a" height="105%" width="105%" x="-2.5%" y="-1.8%"><feOffset dx="0" dy="2" in="SourceAlpha" result="shadowOffsetOuter1"/><feGaussianBlur in="shadowOffsetOuter1" result="shadowBlurOuter1" stdDeviation="2"/><feColorMatrix in="shadowBlurOuter1" result="shadowMatrixOuter1" type="matrix" values="0 0 0 0 0   0 0 0 0 0   0 0 0 0 0  0 0 0 0.5 0"/><feMerge><feMergeNode in="shadowMatrixOuter1"/><feMergeNode in="SourceGraphic"/></feMerge></filter><path id="b" d="m140.268555 122.711914c0-4.64195-1.553533-8.815899-4.660645-12.521973-3.107112-3.706073-7.393364-5.559082-12.858887-5.559082-8.535198 0-15.928516 5.034944-22.180175 15.104981-6.2516592 10.070037-9.3774418 20.083772-9.3774418 30.041504 0 7.337276 1.6096845 12.933737 4.8291016 16.789551 3.2194172 3.855813 7.2623452 5.783691 12.1289062 5.783691 10.107472 0 17.987439-5.895937 23.640137-17.687988 5.652697-11.792051 8.479004-22.442173 8.479004-31.950684zm-22.348633 105.117188c-31.2957295 0-55.4035614-9.770411-72.3242189-29.311524-13.5515-15.647865-20.3271484-33.728738-20.3271484-54.243164 0-24.407674 8.2355947-45.146399 24.7070312-62.2167968 18.2683205-19.0170222 42.7879321-28.5253906 73.5595701-28.5253906 26.653779 0 47.617111 6.7382138 62.890625 20.2148437 14.300202 12.7279282 21.450196 29.2365527 21.450196 49.5263677 0 17.070397-5.109813 31.651143-15.32959 43.742675-10.219778 12.091532-21.656024 18.137207-34.309082 18.137207-7.412147 0-12.877587-1.778139-16.396485-5.334472-3.518897-3.556333-5.27832-7.842586-5.27832-12.858887 0-.823572.074869-1.684566.224609-2.583008.149741-.898442.336913-1.834305.561524-2.807617-3.968119 8.610069-8.984345 14.693179-15.048828 18.249512-6.064484 3.556333-12.316049 5.334472-18.754883 5.334472-9.2090305 0-16.6772176-3.331672-22.4047853-9.995117s-8.5913086-15.23595-8.5913086-25.717773c0-14.899163 4.8852051-28.03868 14.6557617-39.418946 9.7705567-11.3802649 20.2709402-17.0703121 31.5014652-17.0703121 7.636757 0 13.944473 2.2086367 18.92334 6.6259765 4.978866 4.4173396 7.617999 9.7330416 7.91748 15.9472656l5.615234-18.8671874h16.508789l-14.936523 49.1894534c-1.123052 3.818378-1.946612 6.888009-2.470703 9.208984s-.786133 4.379874-.786133 6.176758c0 3.369157 1.029449 5.821119 3.088379 7.355957s4.398587 2.302246 7.019043 2.302246c8.535199 0 16.190559-4.454708 22.966309-13.364258s10.163574-20.551686 10.163574-34.926758c0-17.369878-6.064393-31.0147612-18.19336-40.9350582s-28.450418-14.8803711-48.964843-14.8803711c-28.4506635 0-50.2001204 8.3104638-65.2490238 24.9316406-12.8776686 14.1504617-19.3164063 31.9318587-19.3164063 53.3447267 0 18.717541 6.1392616 34.44004 18.4179688 47.167969 14.3750719 15.048903 34.8517551 22.573242 61.4306643 22.573242 12.428447 0 23.995714-1.965313 34.702148-5.895996 10.706434-3.930684 20.514279-9.227669 29.423828-15.891114l7.41211 10.107422c-6.738315 5.989614-16.808202 11.604792-30.209961 16.845703-13.40176 5.240912-28.150961 7.861329-44.248047 7.861329z"/></defs><g fill="none" fill-rule="evenodd" filter="url(#a)" transform="translate(4)"><circle cx="139.5" cy="141.5" fill="#000" fill-rule="nonzero" r="139.5"/><g transform="translate(21)"><use fill="#000" xlink:href="#b"/><use fill="#fff" xlink:href="#b"/></g></g></svg>