<svg height="279" viewBox="0 0 280 279" width="280" xmlns="http://www.w3.org/2000/svg"><g fill="none" fill-rule="evenodd" transform="translate(0 -1)"><ellipse cx="140" cy="140.498221" fill="#000" fill-rule="nonzero" rx="140" ry="139.501779"/><path d="m161.617466 121.664948c0-4.607411-1.548365-8.750303-4.645141-12.428801-3.096777-3.678498-7.368772-5.517719-12.816113-5.517719-8.506808 0-15.875533 4.99748-22.106397 14.99259-6.230863 9.99511-9.346248 19.934336-9.346248 29.817977 0 7.282682 1.60433 12.837502 4.813038 16.664626s7.238188 5.740657 12.088561 5.740657c10.073851 0 17.927606-5.852067 23.561501-17.556379 5.633894-11.704311 8.450799-22.275189 8.450799-31.712951zm-22.274293 104.335052c-31.191627 0-55.2192674-9.697712-72.0836404-29.093428-13.5064226-15.531435-20.2595326-33.477776-20.2595326-53.839562 0-24.226066 8.2082-44.810482 24.6248462-61.7538657 18.2075532-18.8755239 42.6456028-28.3131443 73.3148828-28.3131443 26.565119 0 47.458719 6.6880774 62.681427 20.064433 14.252634 12.6332247 21.378844 29.019014 21.378844 49.157861 0 16.943383-5.092815 31.41564-15.278598 43.417203-10.185783 12.001564-21.583988 18.002256-34.194957 18.002256-7.387491 0-12.834751-1.76491-16.341943-5.294781-3.507193-3.529872-5.260763-7.784232-5.260763-12.763209 0-.817444.07462-1.672032.223862-2.563789.149243-.891757.335793-1.820656.559656-2.786727-3.954919 8.546005-8.954459 14.583853-14.99877 18.113725-6.044311 3.529871-12.275081 5.294781-18.692497 5.294781-9.178398 0-16.621743-3.306883-22.330258-9.920748-5.7085158-6.613865-8.5627308-15.122585-8.5627308-25.526417 0-14.788305 4.868955-27.830056 14.6070108-39.125645 9.738056-11.2955888 20.203511-16.9432987 31.396679-16.9432987 7.611354 0 13.898089 2.1922032 18.860394 6.5766753 4.962304 4.3844724 7.592659 9.6606224 7.891144 15.8286084l5.596556-18.7268043h16.453874l-14.886839 48.8234533c-1.119316 3.789968-1.940136 6.836759-2.462484 9.140464-.522348 2.303706-.783518 4.347285-.783518 6.130799 0 3.344089 1.026025 5.777806 3.078106 7.301224 2.052081 1.523419 4.383956 2.285116 6.995695 2.285116 8.506807 0 16.136702-4.421562 22.889914-13.264819 6.753211-8.843257 10.129766-20.398769 10.129766-34.666882 0-17.240636-6.04422-30.7839925-18.132841-40.6304764-12.088622-9.846484-28.355782-14.7696521-48.801968-14.7696521-28.356026 0-50.0331358 8.2486289-65.0319808 24.746134-12.8348325 14.0451735-19.2521525 31.6942665-19.2521525 52.9478095 0 18.578271 6.11884 34.183785 18.3567036 46.81701 14.3272549 14.93693 34.7358247 22.405284 61.2263227 22.405284 12.387105 0 23.915895-1.95069 34.586715-5.852127s20.44604-9.159009 29.325954-15.772873l7.387454 10.032216c-6.715901 5.945047-16.752291 11.518445-30.109472 16.720361-13.35718 5.201916-28.05732 7.802835-44.100861 7.802835z" fill="#fff"/></g></svg>