<?xml version="1.0" encoding="UTF-8"?>
<svg width="24px" height="18px" viewBox="0 0 24 18" version="1.1" xmlns="http://www.w3.org/2000/svg" xmlns:xlink="http://www.w3.org/1999/xlink">
    <!-- Generator: Sketch 50 (54983) - http://www.bohemiancoding.com/sketch -->
    <title>In-2C-CMYK-0p25in-TM</title>
    <desc>Created with Sketch.</desc>
    <defs>
        <polygon id="path-1" points="0 0 18 0 18 17.939 0 17.939"></polygon>
    </defs>
    <g id="In-2C-CMYK-0p25in-TM" stroke="none" stroke-width="1" fill="none" fill-rule="evenodd">
        <g id="Group-3">
            <mask id="mask-2" fill="white">
                <use xlink:href="#path-1"></use>
            </mask>
            <g id="Clip-2"></g>
            <path d="M16.667,0 L1.327,0 C0.595,0 0,0.582 0,1.297 L0,16.702 C0,17.42 0.595,18 1.327,18 L16.667,18 C17.4,18 18,17.42 18,16.702 L18,1.297 C18,0.582 17.4,0 16.667,0" id="Fill-1" fill="#0071A1" mask="url(#mask-2)"></path>
        </g>
        <path d="M4.004,2.479 C4.857,2.479 5.552,3.172 5.552,4.026 C5.552,4.881 4.857,5.574 4.004,5.574 C3.146,5.574 2.455,4.881 2.455,4.026 C2.455,3.172 3.146,2.479 4.004,2.479 Z M2.667,15.339 L5.34,15.339 L5.34,6.749 L2.667,6.749 L2.667,15.339 Z" id="Fill-4" fill="#FFFFFE"></path>
        <path d="M7.014,6.749 L9.573,6.749 L9.573,7.922 L9.609,7.922 C9.966,7.247 10.837,6.535 12.136,6.535 C14.838,6.535 15.337,8.314 15.337,10.628 L15.337,15.339 L12.67,15.339 L12.67,11.162 C12.67,10.165 12.65,8.884 11.282,8.884 C9.893,8.884 9.681,9.969 9.681,11.089 L9.681,15.339 L7.014,15.339 L7.014,6.749" id="Fill-5" fill="#FFFFFE"></path>
        <polyline id="Fill-6" fill="#1A1919" points="19.193 13.426 19.808 13.426 19.808 15.339 20.142 15.339 20.142 13.426 20.754 13.426 20.754 13.092 19.193 13.092 19.193 13.426"></polyline>
        <polyline id="Fill-7" fill="#1A1919" points="22.923 13.092 22.268 14.741 21.613 13.092 21.138 13.092 21.138 15.339 21.47 15.339 21.47 13.629 22.157 15.339 22.379 15.339 23.066 13.629 23.066 15.339 23.398 15.339 23.398 13.092 22.923 13.092"></polyline>
    </g>
</svg>