<svg height="279" viewBox="0 0 280 279" width="280" xmlns="http://www.w3.org/2000/svg"><g fill="none" fill-rule="evenodd"><ellipse cx="140" cy="139.498221" fill="#000" fill-rule="nonzero" rx="140" ry="139.501779"/><g transform="translate(36 35)"><path d="m0 0h208v208h-208z"/><path d="m57.5744444 93.9461111c12.56 24.6838889 32.7955556 44.8322219 57.4794446 57.4794449l19.188889-19.188889c2.355-2.355 5.843889-3.14 8.896666-2.093334 9.768889 3.227223 20.322778 4.971667 31.138334 4.971667 4.797222 0 8.722222 3.925 8.722222 8.722222v30.440556c0 4.797222-3.925 8.722222-8.722222 8.722222-81.9016669 0-148.277778-66.376111-148.277778-148.2777778 0-4.7972222 3.925-8.7222222 8.7222222-8.7222222h30.5277778c4.7972222 0 8.7222222 3.925 8.7222222 8.7222222 0 10.9027778 1.7444445 21.3694445 4.9716667 31.1383334.9594444 3.0527777.2616667 6.4544444-2.1805556 8.8966666z" fill="#fff" fill-rule="nonzero"/></g></g></svg>