<svg enable-background="new 0 0 793.9 830.5" viewBox="0 0 793.9 830.5" xmlns="http://www.w3.org/2000/svg" xmlns:xlink="http://www.w3.org/1999/xlink"><clipPath id="a"><path d="m709.3 0v349c0 66.7-43.5 109.8-110.9 109.8s-111-43-111-109.8v-273.2h9.3v273.2c0 61.1 39.9 100.5 101.6 100.5s101.7-39.4 101.7-100.5v-273.2h-37.7v273.2c0 38.6-20.8 62.8-63.9 62.8s-63.9-24.2-63.9-62.8v-311.2h-84.6v300.7c0 96.1 55.5 153.4 148.5 153.4s148.5-57.3 148.5-153.4v-300.5h9.3v300.4c0 101.9-59 162.7-157.8 162.7s-157.8-60.8-157.8-162.7v-338.4h-37.7v338.4c0 121 73.7 200.5 195.5 200.5s195.5-79.4 195.5-200.5v-338.4z"/></clipPath><g fill="#231f20"><path d="m38.6 598.7c15 0 25.3 6.3 25.3 19.9 0 10-4.7 16.1-13.8 19 10.8 3.1 16.5 9.6 16.5 18.4 0 16.9-11.3 23.8-29.9 23.8h-36.7v-9.8l8.6-3.5v-54.1l-8.6-3.4v-9.8l26.5-.6h12.1zm-5.4 33.1c8.4 0 12.9-3.6 12.9-10.7 0-6-4.3-8.6-9.8-8.6h-9.8v19.3zm2.8 34.2c8.1 0 12.3-3.7 12.3-10 0-8.4-4.8-12.1-15.2-12.1h-6.7v22.1z"/><path d="m134.7 647.6c0 20.7-12.1 33.4-30.7 33.4-18.8 0-29.4-9.8-29.4-31.7 0-20.7 12.3-32.8 31.1-32.8 18.6 0 29 11.3 29 31.1zm-42.3 1.2c0 12.7 3.7 18.4 12.1 18.4 8.3 0 12.3-5.2 12.3-19 0-11.7-3.5-17.8-11.7-17.8-8.4-.1-12.7 4.5-12.7 18.4z"/><path d="m139.2 618.2 26.5-.6v39.7c0 6.3 1.8 9.2 7 9.2 7.5 0 13-6.2 13-6.2v-30.1l-9.2-2.9v-9.2l26.5-.6v50.1l9.2 2.3v9l-24.3.8-1.1-8.1s-9.2 9.2-20.1 9.2c-11.5 0-18.2-7.7-18.2-20.6v-30.1l-9.2-2.9v-9z"/><path d="m242.6 625.6s8.3-9.1 16-9.1c6.3 0 10.7 2.1 10.7 2.1l-.9 22.1h-10.4l-1.7-9.8c-6.7 0-12.4 6.4-12.4 6.4v30.4l11.5 2.9v9.2h-38v-9.2l9.2-2.9v-37.4l-9.2-2.9v-9.2l24.2-.6z"/><path d="m297.9 625.6s10.9-8.9 21.2-8.9c11.2 0 17.5 7.9 17.5 20.5v30.5l8.1 2.9v9.2h-31.7v-9.2l6.3-2.9v-27.4c0-5.3-3-9.2-7.8-9.2-7.1 0-12.3 6.6-12.3 6.6v30.1l6.3 2.9v9.2h-32.8v-9.2l9.2-2.9v-37.4l-9.2-2.9v-9.2l24.4-.6z"/><path d="m368.4 652.6c.7 9.2 6 14.6 13.9 14.6 9.6 0 19.3-5.4 19.3-5.4l5 9.6s-11.5 9.7-26.2 9.7c-19.8 0-29.9-11.5-29.9-31.1 0-20.1 11.4-33.4 30.7-33.4 17.2 0 26.1 10.6 26.1 27.1 0 4.4-.7 8.6-.7 9h-38.2zm21-10.8c0-6.6-2.8-11.5-9.4-11.5-6.4 0-10.5 4.7-11.4 11.5z"/><path d="m521.6 679.8h-31.2v-9.2l6.1-2.9v-27.4c0-6.3-1.8-9.4-6.7-9.4-7.5 0-12.8 6-12.8 6v30.9l6 2.9v9.2h-29.2v-9.2l6-2.9v-27.4c0-6.3-1.6-9.4-6.6-9.4-7.5 0-12.9 6-12.9 6v30.9l6.1 2.9v9.2h-32.2v-9.2l8.9-2.9v-37.4l-8.7-2.9v-9.2l24.1-.6.8 8.2s10-9.3 20.1-9.3c8.2 0 13.2 3.8 15.9 9.9 2-2 10.6-9.9 20.8-9.9 12.1 0 17.7 7.8 17.7 20.7v30.5l7.8 2.9z"/><path d="m587.4 647.6c0 20.7-12.1 33.4-30.7 33.4-18.8 0-29.4-9.8-29.4-31.7 0-20.7 12.3-32.8 31.1-32.8 18.6 0 29 11.3 29 31.1zm-42.3 1.2c0 12.7 3.7 18.4 12.1 18.4 8.3 0 12.3-5.2 12.3-19 0-11.7-3.5-17.8-11.7-17.8-8.4-.1-12.7 4.5-12.7 18.4z"/><path d="m592 618.2 26.5-.6v39.7c0 6.3 1.8 9.2 7 9.2 7.5 0 13-6.2 13-6.2v-30.1l-9.2-2.9v-9.2l26.5-.6v50.1l9.2 2.3v9l-24.3.8-1.1-8.1s-9.2 9.2-20.1 9.2c-11.5 0-18.2-7.7-18.2-20.6v-30.1l-9.2-2.9v-9z"/><path d="m715.1 673.9c-5.6 4.1-12.1 7.1-19.6 7.1-13.2 0-17-9.2-17-22.5v-26.5h-10.7v-11.2l10.7-1.5v-15.9l17.3-3.1v19h16.1v12.7h-16.1v25.3c0 7.4 1.3 10.4 6.1 10.4 3.1 0 7.6-1.8 9.1-2.7z"/><path d="m743.9 624.3c3.3-2.8 10.8-7.8 19.3-7.8 11.7 0 18.1 7.8 18.1 20.7v30.5l8.1 2.9v9.2h-31.4v-9.2l6-2.8v-27.8c0-5.8-2.3-9.2-7.6-9.2-6.4 0-12.6 6.1-12.6 6.1v30.9l6.1 2.9v9.2h-32.6v-9.2l9.2-2.9v-64.8l-9.2-2.3v-9.2l26.5-.9v33.7z"/><path d="m26.4 771.8c0 13.2 3.8 18.4 15.1 18.4 12.2 0 14.9-6.6 14.9-20.1v-34.5l-9-3.5v-9.8l35.5-.6v10.4l-8.6 3.5v34.5c0 22.2-8.5 34.2-33.3 34.2-23.1 0-32.4-10.2-32.4-32.5v-36.3l-8.6-3.4v-9.8l35.3-.6v10.4l-9 3.5v36.2z"/><path d="m114.8 748.6s10.9-8.9 21.2-8.9c11.2 0 17.5 7.9 17.5 20.5v30.5l8.1 2.9v9.2h-31.7v-9.2l6.3-2.9v-27.4c0-5.3-3-9.2-7.8-9.2-7.1 0-12.3 6.6-12.3 6.6v30.1l6.3 2.9v9.2h-32.8v-9.2l9.2-2.9v-37.4l-9.2-2.9v-9.2l24.4-.6z"/><path d="m201.9 793.7v9.2h-34.5v-9.2l9.2-2.9v-37.4l-9.2-2.9v-9.2l26.5-.6v50.1zm-17.5-82.4c6 0 9.7 3.1 9.7 10.4 0 6.8-5 10.5-9.7 10.5-6.2 0-9.9-3.7-9.9-10.5 0-6.6 4.7-10.4 9.9-10.4z"/><path d="m242.4 741.3 30.2-.6v9.8l-6.6 1.5-18.5 50.9h-19l-18.2-50.5-5.5-1.8v-9.2l30.2-.6v9.8l-6.4 1.1 10.5 34 9.9-33.7-6.7-1.5v-9.2z"/><path d="m291.6 775.6c.7 9.2 6 14.6 13.9 14.6 9.6 0 19.3-5.4 19.3-5.4l4.9 9.6s-11.5 9.7-26.2 9.7c-19.8 0-29.9-11.5-29.9-31.1 0-20.1 11.4-33.4 30.7-33.4 17.2 0 26.1 10.6 26.1 27.1 0 4.4-.7 8.6-.7 9h-38.1zm21.1-10.7c0-6.6-2.8-11.5-9.4-11.5-6.4 0-10.5 4.7-11.4 11.5z"/><path d="m362.6 748.6s8.3-9.1 16-9.1c6.3 0 10.7 2.1 10.7 2.1l-.9 22.1h-10.4l-1.7-9.8c-6.7 0-12.4 6.4-12.4 6.4v30.4l11.5 2.9v9.2h-38v-9.2l9.2-2.9v-37.4l-9.2-2.9v-9.2l24.2-.6z"/><path d="m404.4 790.2s4 1.1 9.7 1.1c6.3 0 9.4-2 9.4-5.6 0-9.4-30.7-6-30.7-26.5 0-14.4 11.5-19.7 23.7-19.7 10.4 0 21.4 3.5 21.4 3.5l-.5 17.3h-9.8l-1.7-6.9s-3.3-1.2-7.9-1.2c-4.9 0-7.9 2.1-7.9 5.9 0 9.3 30.7 5.3 30.7 25.2 0 13.2-10.7 20.7-26.5 20.7-10.9 0-21.2-2.5-21.2-2.5v-18.8h10.4z"/><path d="m482.2 793.7v9.2h-34.5v-9.2l9.2-2.9v-37.4l-9.2-2.9v-9.2l26.5-.6v50.1zm-17.5-82.4c6 0 9.7 3.1 9.7 10.4 0 6.8-4.9 10.5-9.7 10.5-6.2 0-9.9-3.7-9.9-10.5 0-6.6 4.7-10.4 9.9-10.4z"/><path d="m533.5 796.9c-5.6 4.1-12.1 7.1-19.6 7.1-13.2 0-17-9.2-17-22.5v-26.5h-10.7v-11.2l10.7-1.5v-15.9l17.3-3.1v19h16.1v12.7h-16.1v25.3c0 7.4 1.3 10.4 6.1 10.4 3.1 0 7.6-1.8 9.1-2.7z"/><path d="m534.1 741.3 30.7-.6v9.8l-6.4 1.1 10.3 32.2 9.8-31.9-6.7-1.5v-9.2l31-.6v9.8l-7.1 1.5-16.9 47.2c-5.5 15.2-13 31.3-31.3 31.3-3.9 0-11.2-.9-11.2-.9l1.6-12.3h7.5c9.2 0 13.5-9.8 15.4-14.3l-20.5-50.7-6.1-1.8v-9.1z"/></g><g clip-path="url(#a)"><path d="m470.4-27.5v375.3c0 76.9 52.1 128.6 129.7 128.6s129.7-51.7 129.7-128.6v-375.3" fill="none"/><path d="m376.3-27.5h188.3v12.5h-188.3z" fill="#ee7326"/><path d="m376.3-21.5h188.3v12.5h-188.3z" fill="#ee7227"/><path d="m376.3-15.5h188.3v12.5h-188.3z" fill="#ee7227"/><path d="m376.3-9.5h188.3v12.5h-188.3z" fill="#ee7228"/><path d="m376.3-3.5h188.3v12.5h-188.3z" fill="#ee7129"/><path d="m376.3 2.5h188.3v12.5h-188.3z" fill="#ee712a"/><path d="m376.3 8.5h188.3v12.5h-188.3z" fill="#ee702b"/><path d="m376.3 14.4h188.3v12.5h-188.3z" fill="#ee702c"/><path d="m376.3 20.4h188.3v12.5h-188.3z" fill="#ee702c"/><path d="m376.3 26.4h188.3v12.5h-188.3z" fill="#ed6f2d"/><path d="m376.3 32.4h188.3v12.5h-188.3z" fill="#ed6f2e"/><path d="m376.3 38.4h188.3v12.5h-188.3z" fill="#ed6e2f"/><path d="m376.3 44.4h188.3v12.5h-188.3z" fill="#ed6e2f"/><path d="m376.3 50.4h188.3v12.5h-188.3z" fill="#ed6e30"/><path d="m376.3 56.3h188.3v12.5h-188.3z" fill="#ed6d31"/><path d="m376.3 62.3h188.3v12.5h-188.3z" fill="#ed6d32"/><path d="m376.3 68.3h188.3v12.5h-188.3z" fill="#ed6c32"/><path d="m376.3 74.3h188.3v12.5h-188.3z" fill="#ed6c33"/><path d="m376.3 80.3h188.3v12.5h-188.3z" fill="#ed6c34"/><path d="m376.3 86.3h188.3v12.5h-188.3z" fill="#ed6b35"/><path d="m376.3 92.3h188.3v12.5h-188.3z" fill="#ed6b35"/><path d="m376.3 98.2h188.3v12.5h-188.3z" fill="#ed6a36"/><path d="m376.3 104.2h188.3v12.5h-188.3z" fill="#ed6a37"/><path d="m376.3 110.2h188.3v12.5h-188.3z" fill="#ed6a37"/><path d="m376.3 116.2h188.3v12.5h-188.3z" fill="#ed6938"/><path d="m376.3 122.2h188.3v12.5h-188.3z" fill="#ed6939"/><path d="m376.3 128.2h188.3v12.5h-188.3z" fill="#ed6939"/><path d="m376.3 134.2h188.3v12.5h-188.3z" fill="#ec683a"/><path d="m376.3 140.1h188.3v12.5h-188.3z" fill="#ec683b"/><path d="m376.3 146.1h188.3v12.5h-188.3z" fill="#ec673b"/><path d="m376.3 152.1h188.3v12.5h-188.3z" fill="#ec673c"/><path d="m376.3 158.1h188.3v12.5h-188.3z" fill="#ec673d"/><path d="m376.3 164.1h188.3v12.5h-188.3z" fill="#ec663d"/><path d="m376.3 170.1h188.3v12.5h-188.3z" fill="#ec663e"/><path d="m376.3 176.1h188.3v12.5h-188.3z" fill="#ec663f"/><path d="m376.3 182h188.3v12.5h-188.3z" fill="#ec653f"/><path d="m376.3 188h188.3v12.5h-188.3z" fill="#ec6540"/><path d="m376.3 194h188.3v12.5h-188.3z" fill="#ec6440"/><path d="m376.3 200h188.3v12.5h-188.3z" fill="#ec6441"/><path d="m376.3 206h188.3v12.5h-188.3z" fill="#ec6442"/><path d="m376.3 212h188.3v12.5h-188.3z" fill="#ec6342"/><path d="m376.3 218h188.3v12.5h-188.3z" fill="#ec6343"/><path d="m376.3 223.9h188.3v12.5h-188.3z" fill="#ec6343"/><path d="m376.3 229.9h188.3v12.5h-188.3z" fill="#ec6244"/><path d="m376.3 235.9h188.3v12.5h-188.3z" fill="#ec6244"/><path d="m376.3 241.9h188.3v12.5h-188.3z" fill="#ec6145"/><path d="m376.3 247.9h188.3v12.5h-188.3z" fill="#ec6146"/><path d="m376.3 253.9h188.3v12.5h-188.3z" fill="#ec6146"/><path d="m376.3 259.9h188.3v12.5h-188.3z" fill="#ec6047"/><path d="m376.3 265.8h188.3v12.5h-188.3z" fill="#ec6047"/><path d="m376.3 271.8h188.3v12.5h-188.3z" fill="#ec5f48"/><path d="m376.3 277.8h188.3v12.5h-188.3z" fill="#ec5f48"/><path d="m376.3 283.8h188.3v12.5h-188.3z" fill="#eb5f49"/><path d="m376.3 289.8h188.3v12.5h-188.3z" fill="#eb5e49"/><path d="m376.3 295.8h188.3v12.5h-188.3z" fill="#eb5e4a"/><path d="m376.3 301.8h188.3v12.5h-188.3z" fill="#eb5d4a"/><path d="m376.3 307.7h188.3v12.5h-188.3z" fill="#eb5d4b"/><path d="m376.3 313.7h188.3v12.5h-188.3z" fill="#eb5c4b"/><path d="m376.3 319.7h188.3v12.5h-188.3z" fill="#eb5c4c"/><path d="m376.3 325.7h188.3v12.5h-188.3z" fill="#eb5b4c"/><path d="m376.3 331.7h188.3v12.5h-188.3z" fill="#eb5b4d"/><path d="m376.3 351.4c-.1-6.7 0-9-.1-13.7h188.3v11.2z" fill="#eb5b4d"/><path d="m376.6 360.8c-.3-6.3-.4-14-.3-17.1h188.3c0 5.2.1 5.8.1 7.8z" fill="#eb5a4e"/><path d="m377.3 370.3c-.5-6.6-.9-13.2-.9-19.7l188.3-2c0 1.8.1 3.5.2 5.2z" fill="#eb5a4e"/><path d="m378.3 379.9c-.8-6.7-1.4-13.3-1.7-19.9l188.1-8.8c.1 1.7.2 3.4.4 4.9z" fill="#eb594e"/><path d="m379.7 389.6c-1.2-6.8-1.9-13.4-2.5-20.1l187.6-15.8c.2 1.6.3 3.2.6 4.6z" fill="#eb594f"/><path d="m381.6 399.4c-1.5-6.8-2.5-13.5-3.4-20.2l186.9-23.2c.2 1.5.4 3 .7 4.3z" fill="#eb584f"/><path d="m383.9 409.2c-1.8-6.8-3.2-13.6-4.3-20.3l185.8-30.7c.2 1.4.5 2.8.8 4z" fill="#eb5850"/><path d="m386.7 419c-2.1-6.8-3.8-13.6-5.2-20.4l184.3-38.4c.3 1.4.6 2.6.9 3.7z" fill="#eb5750"/><path d="m389.9 428.8c-2.4-6.8-4.5-13.6-6.2-20.4l182.5-46.4c.3 1.3.6 2.4 1 3.4z" fill="#eb5751"/><path d="m393.7 438.5c-2.8-6.7-5.2-13.5-7.2-20.4l180.3-54.5c.3 1.2.7 2.2 1.1 3.1z" fill="#eb5751"/><path d="m397.9 448.2c-3.1-6.7-5.9-13.4-8.3-20.2l177.6-62.7c.4 1 .7 2 1.1 2.8z" fill="#ea5652"/><path d="m402.7 457.8c-3.5-6.6-6.6-13.3-9.4-20l174.4-71.1c.4.9.8 1.8 1.2 2.5z" fill="#ea5652"/><path d="m408 467.1c-3.9-6.4-7.3-13-10.4-19.7l170.7-79.4c.4.9.8 1.6 1.2 2.3z" fill="#ea5552"/><path d="m413.8 476.3c-4.2-6.3-8.1-12.7-11.5-19.3l166.6-87.8c.4.8.8 1.5 1.2 2.1z" fill="#ea5553"/><path d="m420.1 485.2c-4.6-6.1-8.7-12.4-12.6-18.8l161.9-96.2c.4.7.8 1.3 1.3 1.9z" fill="#ea5453"/><path d="m427 493.8c-4.9-5.8-9.4-11.9-13.6-18.2l156.7-104.4c.4.6.8 1.2 1.3 1.7z" fill="#ea5454"/><path d="m434.2 502c-5.2-5.6-10.1-11.4-14.6-17.5l151.1-112.5c.4.6.9 1.1 1.3 1.6z" fill="#ea5354"/><path d="m441.9 509.8c-5.5-5.3-10.7-10.9-15.5-16.7l144.9-120.3 1.4 1.5z" fill="#ea5355"/><path d="m450 517.2c-5.8-5-11.2-10.3-16.4-15.9l138.3-127.8c.5.5.9 1 1.5 1.4z" fill="#ea5255"/><path d="m458.5 524.2c-6-4.7-11.7-9.7-17.2-15l131.3-135c.5.5 1 .9 1.6 1.4z" fill="#ea5255"/><path d="m467.3 530.7c-6.2-4.3-12.2-9-17.9-14l124-141.7c.5.4 1.1.9 1.7 1.3z" fill="#ea5156"/><path d="m476.3 536.7c-6.4-4-12.5-8.3-18.5-13l116.3-148.1c.6.4 1.2.9 1.9 1.3z" fill="#ea5156"/><path d="m485.6 542.1c-6.5-3.6-12.8-7.6-19-11.9l108.4-154c.6.4 1.3.9 2.1 1.3z" fill="#ea5056"/><path d="m495 547.1c-6.6-3.3-13.1-6.9-19.4-10.9l100.4-159.3c.7.4 1.5.8 2.3 1.3z" fill="#ea5057"/><path d="m504.6 551.5c-6.7-2.9-13.3-6.2-19.8-9.8l92.2-164.2c.8.4 1.6.8 2.5 1.3z" fill="#ea4f57"/><path d="m514.2 555.4c-6.7-2.6-13.4-5.5-20-8.7l83.9-168.6c.9.4 1.8.8 2.8 1.2z" fill="#ea4f58"/><path d="m524 558.9c-6.8-2.2-13.5-4.8-20.2-7.7l75.6-172.5c1 .4 2 .8 3.1 1.2z" fill="#ea4e58"/><path d="m533.7 561.8c-6.8-1.9-13.5-4.1-20.2-6.7l67.3-175.9c1.1.4 2.2.7 3.4 1.1z" fill="#ea4e58"/><path d="m543.4 564.3c-6.7-1.6-13.5-3.5-20.3-5.7l59.2-178.8c1.2.3 2.4.7 3.7 1z" fill="#ea4d59"/><path d="m553.1 566.3c-6.7-1.3-13.5-2.9-20.2-4.7l51.1-181.2c1.3.3 2.6.7 4 .9z" fill="#ea4d59"/><path d="m562.8 567.9c-6.7-1-13.4-2.3-20.1-3.8l43.3-183.3c1.3.3 2.8.6 4.3.8z" fill="#e94c59"/><path d="m572.4 569.1c-6.6-.7-13.3-1.7-20-3l35.6-184.9c1.4.3 3 .5 4.6.7z" fill="#e94c5a"/><path d="m581.8 570c-6.5-.5-13.1-1.1-19.8-2.2l28.1-186.2c1.5.3 3.2.4 4.9.5z" fill="#e94b5a"/><path d="m591.2 570.5c-6.5-.2-13-.6-19.6-1.4l20.8-187.2c1.6.2 3.4.3 5.2.4z" fill="#e94b5a"/><path d="m600.5 570.6c-6.4-.1-12.9-.2-19.4-.7l13.7-187.8c1.7.2 3.6.2 5.5.2z" fill="#e94a5b"/><path d="m609.8 570.5c-6.4.2-12.9.2-19.3 0l6.9-188.2c1.9.1 3.7.1 5.6 0z" fill="#e94a5b"/><path d="m619.2 569.9c-6.6.5-13 .7-19.4.7l.3-188.3c1.9-.1 3.7-.1 5.5-.2z" fill="#e9495b"/><path d="m628.7 569c-6.6.8-13.2 1.2-19.6 1.4l-6.3-188.2c1.8-.1 3.6-.2 5.2-.4z" fill="#e9495c"/><path d="m638.3 567.8c-6.7 1.1-13.3 1.7-19.8 2.2l-13.1-187.8c1.7-.1 3.4-.3 4.9-.5z" fill="#e9485c"/><path d="m647.9 566.1c-6.7 1.3-13.4 2.3-20 3l-20.2-187.2c1.7-.1 3.2-.4 4.6-.7z" fill="#e9485c"/><path d="m657.6 564.1c-6.7 1.6-13.5 2.9-20.1 3.8l-27.5-186.3c1.6-.2 3-.5 4.3-.8z" fill="#e9475d"/><path d="m667.4 561.6c-6.8 1.9-13.5 3.5-20.2 4.7l-34.9-185c1.5-.3 2.8-.6 4-.9z" fill="#e9475d"/><path d="m677.1 558.6c-6.8 2.2-13.5 4.1-20.3 5.7l-42.6-183.4c1.3-.3 2.6-.7 3.7-1z" fill="#e9465d"/><path d="m686.8 555.1c-6.7 2.5-13.5 4.8-20.2 6.7l-50.5-181.4c1.2-.4 2.3-.7 3.4-1.1z" fill="#e9465e"/><path d="m696.5 551.2c-6.7 2.9-13.4 5.4-20.2 7.7l-58.5-179c1.1-.4 2.1-.8 3.1-1.2z" fill="#e9455e"/><path d="m706 546.7c-6.6 3.3-13.3 6.2-20 8.7l-66.7-176.1c1-.4 2-.8 2.8-1.2z" fill="#e9455e"/><path d="m715.5 541.7c-6.5 3.6-13.1 6.9-19.8 9.8l-74.9-172.8c.9-.4 1.8-.8 2.5-1.3z" fill="#e9445f"/><path d="m724.7 536.2c-6.3 4-12.8 7.6-19.4 10.9l-83.2-168.9c.8-.4 1.6-.9 2.3-1.3z" fill="#e9435f"/><path d="m733.7 530.2c-6.2 4.3-12.5 8.3-19 11.9l-91.5-164.6c.8-.4 1.4-.9 2.1-1.3z" fill="#e9435f"/><path d="m742.5 523.7c-6 4.7-12.2 9-18.5 13l-99.7-159.7c.7-.4 1.3-.9 1.9-1.3z" fill="#e9425f"/><path d="m750.9 516.7c-5.7 5-11.7 9.7-17.9 14l-107.8-154.4c.6-.4 1.2-.9 1.7-1.3z" fill="#e94260"/><path d="m759 509.2c-5.5 5.3-11.2 10.3-17.2 15l-115.7-148.6c.6-.4 1.1-.9 1.6-1.4z" fill="#e94160"/><path d="m766.7 501.4c-5.2 5.6-10.7 10.9-16.4 15.9l-123.4-142.3c.5-.5 1-.9 1.5-1.4z" fill="#e94160"/><path d="m773.9 493.1c-4.9 5.8-10.1 11.5-15.5 16.7l-130.8-135.5 1.4-1.5z" fill="#e94061"/><path d="m780.7 484.5c-4.5 6.1-9.4 11.9-14.6 17.5l-137.8-128.4c.5-.5.9-1 1.3-1.6z" fill="#e84061"/><path d="m786.9 475.6c-4.2 6.3-8.7 12.4-13.6 18.2l-144.4-120.9c.4-.5.9-1.1 1.3-1.7z" fill="#e83f61"/><path d="m792.7 466.4c-3.8 6.4-8 12.7-12.6 18.8l-150.5-113.1c.4-.6.8-1.2 1.3-1.9z" fill="#e83e61"/><path d="m798 457c-3.5 6.6-7.3 13-11.5 19.3l-156.3-105c.4-.6.8-1.3 1.2-2.1z" fill="#e83e62"/><path d="m802.7 447.4c-3.1 6.7-6.6 13.3-10.4 19.7l-161.5-96.8c.4-.7.8-1.4 1.2-2.3z" fill="#e83d62"/><path d="m806.9 437.8c-2.7 6.7-5.9 13.4-9.4 20l-166.2-88.5c.4-.8.8-1.6 1.2-2.5z" fill="#e83d62"/><path d="m810.6 428c-2.4 6.8-5.1 13.6-8.3 20.2l-170.4-80.1c.4-.8.8-1.8 1.1-2.8z" fill="#e83c63"/><path d="m813.8 418.2c-2 6.8-4.4 13.6-7.2 20.4l-174.1-71.7c.4-.9.8-1.9 1.1-3.1z" fill="#e83c63"/><path d="m816.6 408.4c-1.7 6.8-3.8 13.6-6.2 20.4l-177.4-63.4c.4-1 .7-2.1 1-3.4z" fill="#e83b63"/><path d="m818.8 398.6c-1.4 6.8-3.1 13.6-5.2 20.4l-180.1-55.2c.4-1.1.7-2.4.9-3.7z" fill="#e83b63"/><path d="m820.7 388.8c-1.1 6.7-2.5 13.5-4.3 20.4l-182.3-47c.3-1.2.6-2.6.8-4z" fill="#e83a64"/><path d="m822.1 379.1c-.9 6.7-1.9 13.4-3.4 20.2l-184.2-39.1c.3-1.3.5-2.8.7-4.3z" fill="#e83964"/><path d="m823.1 369.5c-.6 6.7-1.4 13.3-2.5 20.1l-185.7-31.3c.3-1.4.4-3 .6-4.6z" fill="#e83964"/><path d="m823.7 360c-.3 6.6-.9 13.2-1.7 19.9l-186.8-23.7c.2-1.5.3-3.2.4-4.9z" fill="#e83865"/><path d="m824 350.6c0 6.5-.4 13-.9 19.7l-187.6-16.4c.1-1.7.2-3.4.2-5.2z" fill="#e83865"/><path d="m824 343.6c0 3.1 0 10.8-.3 17.1l-188.1-9.3c0-2 .1-2.6.1-7.8z" fill="#e83765"/><path d="m824 337.7c0 4.7.1 7-.1 13.7l-188.3-2.5c.1-1.6 0-7.6 0-11.2z" fill="#e83765"/><path d="m635.7 331.7h188.3v12.5h-188.3z" fill="#e83666"/><path d="m635.7 325.7h188.3v12.5h-188.3z" fill="#e83566"/><path d="m635.7 319.7h188.3v12.5h-188.3z" fill="#e83566"/><path d="m635.7 313.7h188.3v12.5h-188.3z" fill="#e83466"/><path d="m635.7 307.7h188.3v12.5h-188.3z" fill="#e83467"/><path d="m635.7 301.8h188.3v12.5h-188.3z" fill="#e83367"/><path d="m635.7 295.8h188.3v12.5h-188.3z" fill="#e83267"/><path d="m635.7 289.8h188.3v12.5h-188.3z" fill="#e83267"/><path d="m635.7 283.8h188.3v12.5h-188.3z" fill="#e83168"/><path d="m635.7 277.8h188.3v12.5h-188.3z" fill="#e83168"/><path d="m635.7 271.8h188.3v12.5h-188.3z" fill="#e83068"/><path d="m635.7 265.8h188.3v12.5h-188.3z" fill="#e72f68"/><path d="m635.7 259.9h188.3v12.5h-188.3z" fill="#e72f69"/><path d="m635.7 253.9h188.3v12.5h-188.3z" fill="#e72e69"/><path d="m635.7 247.9h188.3v12.5h-188.3z" fill="#e72d69"/><path d="m635.7 241.9h188.3v12.5h-188.3z" fill="#e72c69"/><path d="m635.7 235.9h188.3v12.5h-188.3z" fill="#e72c69"/><path d="m635.7 229.9h188.3v12.5h-188.3z" fill="#e72b6a"/><path d="m635.7 223.9h188.3v12.5h-188.3z" fill="#e72a6a"/><path d="m635.7 218h188.3v12.5h-188.3z" fill="#e72a6a"/><path d="m635.7 212h188.3v12.5h-188.3z" fill="#e7296a"/><path d="m635.7 206h188.3v12.5h-188.3z" fill="#e7286b"/><path d="m635.7 200h188.3v12.5h-188.3z" fill="#e7276b"/><path d="m635.7 194h188.3v12.5h-188.3z" fill="#e7276b"/><path d="m635.7 188h188.3v12.5h-188.3z" fill="#e7266b"/><path d="m635.7 182h188.3v12.5h-188.3z" fill="#e7256b"/><path d="m635.7 176.1h188.3v12.5h-188.3z" fill="#e7246c"/><path d="m635.7 170.1h188.3v12.5h-188.3z" fill="#e7236c"/><path d="m635.7 164.1h188.3v12.5h-188.3z" fill="#e7226c"/><path d="m635.7 158.1h188.3v12.5h-188.3z" fill="#e7216c"/><path d="m635.7 152.1h188.3v12.5h-188.3z" fill="#e7216d"/><path d="m635.7 146.1h188.3v12.5h-188.3z" fill="#e7206d"/><path d="m635.7 140.1h188.3v12.5h-188.3z" fill="#e71f6d"/><path d="m635.7 134.2h188.3v12.5h-188.3z" fill="#e71e6d"/><path d="m635.7 128.2h188.3v12.5h-188.3z" fill="#e61d6d"/><path d="m635.7 122.2h188.3v12.5h-188.3z" fill="#e61c6e"/><path d="m635.7 116.2h188.3v12.5h-188.3z" fill="#e61a6e"/><path d="m635.7 110.2h188.3v12.5h-188.3z" fill="#e6196e"/><path d="m635.7 104.2h188.3v12.5h-188.3z" fill="#e6186e"/><path d="m635.7 98.2h188.3v12.5h-188.3z" fill="#e6176e"/><path d="m635.7 92.3h188.3v12.5h-188.3z" fill="#e6156e"/><path d="m635.7 86.3h188.3v12.5h-188.3z" fill="#e6146f"/><path d="m635.7 80.3h188.3v12.5h-188.3z" fill="#e6126f"/><path d="m635.7 74.3h188.3v12.5h-188.3z" fill="#e6116f"/><path d="m635.7 68.3h188.3v12.5h-188.3z" fill="#e60f6f"/><path d="m635.7 62.3h188.3v12.5h-188.3z" fill="#e60d6f"/><path d="m635.7 56.3h188.3v12.5h-188.3z" fill="#e60b70"/><path d="m635.7 50.4h188.3v12.5h-188.3z" fill="#e60970"/><path d="m635.7 44.4h188.3v12.5h-188.3z" fill="#e60770"/><path d="m635.7 38.4h188.3v12.5h-188.3z" fill="#e60470"/><path d="m635.7 32.4h188.3v12.5h-188.3z" fill="#e60270"/><path d="m635.7 26.4h188.3v12.5h-188.3z" fill="#e60070"/><path d="m635.7 20.4h188.3v12.5h-188.3z" fill="#e60070"/><g fill="#e60071"><path d="m635.7 14.4h188.3v12.5h-188.3z"/><path d="m635.7 8.5h188.3v12.5h-188.3z"/><path d="m635.7 2.5h188.3v12.5h-188.3z"/><path d="m635.7-3.5h188.3v12.5h-188.3z"/><path d="m635.7-9.5h188.3v12.5h-188.3z"/></g><path d="m635.7-15.5h188.3v12.5h-188.3z" fill="#e50071"/><path d="m635.7-21.5h188.3v12.5h-188.3z" fill="#e50071"/><path d="m635.7-27.5h188.3v12.5h-188.3z" fill="#e50071"/></g><path d="m0 0h163c89.3 0 130.8 8.6 169.4 51.5 23.6 24.3 31.5 56.5 31.5 87.2 0 40.7-18.6 82.2-61.5 106.5 85.1 30 87.2 100.8 87.2 122.9 0 42.2-16.4 88.6-48.6 115.1-48.6 40.8-83.6 45.8-173 45.8h-168zm129.4 200.8h47.9c18.6 0 57.2 0 57.2-42.2 0-40-36.4-40-57.2-40h-47.9zm0 209.5h63.6c17.2 0 67.2 0 67.2-50.7 0-45.7-45.7-45.7-67.2-45.7h-63.6z"/></svg>