<?xml version="1.0" encoding="utf-8"?>
<!-- Generator: Adobe Illustrator 19.0.1, SVG Export Plug-In . SVG Version: 6.00 Build 0)  -->
<svg version="1.1" xmlns="http://www.w3.org/2000/svg" xmlns:xlink="http://www.w3.org/1999/xlink" x="0px" y="0px"
	 viewBox="0 0 793.9 830.5" style="enable-background:new 0 0 793.9 830.5;" xml:space="preserve">
<style type="text/css">
	.st0{display:none;}
	.st1{display:inline;fill:none;}
	.st2{fill:#231F20;}
	.st3{clip-path:url(#SVGID_2_);}
	.st4{fill:none;}
	.st5{fill:#EE7326;}
	.st6{fill:#EE7227;}
	.st7{fill:#EE7228;}
	.st8{fill:#EE7129;}
	.st9{fill:#EE712A;}
	.st10{fill:#EE702B;}
	.st11{fill:#EE702C;}
	.st12{fill:#ED6F2D;}
	.st13{fill:#ED6F2E;}
	.st14{fill:#ED6E2F;}
	.st15{fill:#ED6E30;}
	.st16{fill:#ED6D31;}
	.st17{fill:#ED6D32;}
	.st18{fill:#ED6C32;}
	.st19{fill:#ED6C33;}
	.st20{fill:#ED6C34;}
	.st21{fill:#ED6B35;}
	.st22{fill:#ED6A36;}
	.st23{fill:#ED6A37;}
	.st24{fill:#ED6938;}
	.st25{fill:#ED6939;}
	.st26{fill:#EC683A;}
	.st27{fill:#EC683B;}
	.st28{fill:#EC673B;}
	.st29{fill:#EC673C;}
	.st30{fill:#EC673D;}
	.st31{fill:#EC663D;}
	.st32{fill:#EC663E;}
	.st33{fill:#EC663F;}
	.st34{fill:#EC653F;}
	.st35{fill:#EC6540;}
	.st36{fill:#EC6440;}
	.st37{fill:#EC6441;}
	.st38{fill:#EC6442;}
	.st39{fill:#EC6342;}
	.st40{fill:#EC6343;}
	.st41{fill:#EC6244;}
	.st42{fill:#EC6145;}
	.st43{fill:#EC6146;}
	.st44{fill:#EC6047;}
	.st45{fill:#EC5F48;}
	.st46{fill:#EB5F49;}
	.st47{fill:#EB5E49;}
	.st48{fill:#EB5E4A;}
	.st49{fill:#EB5D4A;}
	.st50{fill:#EB5D4B;}
	.st51{fill:#EB5C4B;}
	.st52{fill:#EB5C4C;}
	.st53{fill:#EB5B4C;}
	.st54{fill:#EB5B4D;}
	.st55{fill:#EB5A4E;}
	.st56{fill:#EB594E;}
	.st57{fill:#EB594F;}
	.st58{fill:#EB584F;}
	.st59{fill:#EB5850;}
	.st60{fill:#EB5750;}
	.st61{fill:#EB5751;}
	.st62{fill:#EA5652;}
	.st63{fill:#EA5552;}
	.st64{fill:#EA5553;}
	.st65{fill:#EA5453;}
	.st66{fill:#EA5454;}
	.st67{fill:#EA5354;}
	.st68{fill:#EA5355;}
	.st69{fill:#EA5255;}
	.st70{fill:#EA5156;}
	.st71{fill:#EA5056;}
	.st72{fill:#EA5057;}
	.st73{fill:#EA4F57;}
	.st74{fill:#EA4F58;}
	.st75{fill:#EA4E58;}
	.st76{fill:#EA4D59;}
	.st77{fill:#E94C59;}
	.st78{fill:#E94C5A;}
	.st79{fill:#E94B5A;}
	.st80{fill:#E94A5B;}
	.st81{fill:#E9495B;}
	.st82{fill:#E9495C;}
	.st83{fill:#E9485C;}
	.st84{fill:#E9475D;}
	.st85{fill:#E9465D;}
	.st86{fill:#E9465E;}
	.st87{fill:#E9455E;}
	.st88{fill:#E9445F;}
	.st89{fill:#E9435F;}
	.st90{fill:#E9425F;}
	.st91{fill:#E94260;}
	.st92{fill:#E94160;}
	.st93{fill:#E94061;}
	.st94{fill:#E84061;}
	.st95{fill:#E83F61;}
	.st96{fill:#E83E61;}
	.st97{fill:#E83E62;}
	.st98{fill:#E83D62;}
	.st99{fill:#E83C63;}
	.st100{fill:#E83B63;}
	.st101{fill:#E83A64;}
	.st102{fill:#E83964;}
	.st103{fill:#E83865;}
	.st104{fill:#E83765;}
	.st105{fill:#E83666;}
	.st106{fill:#E83566;}
	.st107{fill:#E83466;}
	.st108{fill:#E83467;}
	.st109{fill:#E83367;}
	.st110{fill:#E83267;}
	.st111{fill:#E83168;}
	.st112{fill:#E83068;}
	.st113{fill:#E72F68;}
	.st114{fill:#E72F69;}
	.st115{fill:#E72E69;}
	.st116{fill:#E72D69;}
	.st117{fill:#E72C69;}
	.st118{fill:#E72B6A;}
	.st119{fill:#E72A6A;}
	.st120{fill:#E7296A;}
	.st121{fill:#E7286B;}
	.st122{fill:#E7276B;}
	.st123{fill:#E7266B;}
	.st124{fill:#E7256B;}
	.st125{fill:#E7246C;}
	.st126{fill:#E7236C;}
	.st127{fill:#E7226C;}
	.st128{fill:#E7216C;}
	.st129{fill:#E7216D;}
	.st130{fill:#E7206D;}
	.st131{fill:#E71F6D;}
	.st132{fill:#E71E6D;}
	.st133{fill:#E61D6D;}
	.st134{fill:#E61C6E;}
	.st135{fill:#E61A6E;}
	.st136{fill:#E6196E;}
	.st137{fill:#E6186E;}
	.st138{fill:#E6176E;}
	.st139{fill:#E6156E;}
	.st140{fill:#E6146F;}
	.st141{fill:#E6126F;}
	.st142{fill:#E6116F;}
	.st143{fill:#E60F6F;}
	.st144{fill:#E60D6F;}
	.st145{fill:#E60B70;}
	.st146{fill:#E60970;}
	.st147{fill:#E60770;}
	.st148{fill:#E60470;}
	.st149{fill:#E60270;}
	.st150{fill:#E60070;}
	.st151{fill:#E60071;}
	.st152{fill:#E50071;}
</style>
<g id="Clear_space" class="st0">
	<rect x="-131.6" y="-131.6" class="st1" width="1057.1" height="1070.2"/>
</g>
<g id="Boxes" class="st0">
	<rect x="793.9" y="129" class="st1" width="131.6" height="131.6"/>
	<rect x="693" y="-131.6" class="st1" width="131.6" height="131.6"/>
	<rect x="27.4" y="-131.6" class="st1" width="131.6" height="131.6"/>
	<rect x="27.4" y="806.9" class="st1" width="131.6" height="131.6"/>
	<rect x="-131.6" y="36.3" class="st1" width="131.6" height="131.6"/>
	<rect x="-16.3" y="528.9" class="st1" width="131.6" height="65.8"/>
</g>
<g id="Type">
	<g>
		<path class="st2" d="M38.6,598.7c15,0,25.3,6.3,25.3,19.9c0,10-4.7,16.1-13.8,19c10.8,3.1,16.5,9.6,16.5,18.4
			c0,16.9-11.3,23.8-29.9,23.8H0v-9.8l8.6-3.5v-54.1L0,609v-9.8l26.5-0.6H38.6z M33.2,631.8c8.4,0,12.9-3.6,12.9-10.7
			c0-6-4.3-8.6-9.8-8.6h-9.8v19.3H33.2z M36,666c8.1,0,12.3-3.7,12.3-10c0-8.4-4.8-12.1-15.2-12.1h-6.7V666H36z"/>
		<path class="st2" d="M134.7,647.6c0,20.7-12.1,33.4-30.7,33.4c-18.8,0-29.4-9.8-29.4-31.7c0-20.7,12.3-32.8,31.1-32.8
			C124.3,616.5,134.7,627.8,134.7,647.6z M92.4,648.8c0,12.7,3.7,18.4,12.1,18.4c8.3,0,12.3-5.2,12.3-19c0-11.7-3.5-17.8-11.7-17.8
			C96.7,630.3,92.4,634.9,92.4,648.8z"/>
		<path class="st2" d="M139.2,618.2l26.5-0.6v39.7c0,6.3,1.8,9.2,7,9.2c7.5,0,13-6.2,13-6.2v-30.1l-9.2-2.9v-9.2l26.5-0.6v50.1
			l9.2,2.3v9l-24.3,0.8l-1.1-8.1c0,0-9.2,9.2-20.1,9.2c-11.5,0-18.2-7.7-18.2-20.6v-30.1l-9.2-2.9V618.2z"/>
		<path class="st2" d="M242.6,625.6c0,0,8.3-9.1,16-9.1c6.3,0,10.7,2.1,10.7,2.1l-0.9,22.1H258l-1.7-9.8c-6.7,0-12.4,6.4-12.4,6.4
			v30.4l11.5,2.9v9.2h-38v-9.2l9.2-2.9v-37.4l-9.2-2.9v-9.2l24.2-0.6L242.6,625.6z"/>
		<path class="st2" d="M297.9,625.6c0,0,10.9-8.9,21.2-8.9c11.2,0,17.5,7.9,17.5,20.5v30.5l8.1,2.9v9.2H313v-9.2l6.3-2.9v-27.4
			c0-5.3-3-9.2-7.8-9.2c-7.1,0-12.3,6.6-12.3,6.6v30.1l6.3,2.9v9.2h-32.8v-9.2l9.2-2.9v-37.4l-9.2-2.9v-9.2l24.4-0.6L297.9,625.6z"
			/>
		<path class="st2" d="M368.4,652.6c0.7,9.2,6,14.6,13.9,14.6c9.6,0,19.3-5.4,19.3-5.4l5,9.6c0,0-11.5,9.7-26.2,9.7
			c-19.8,0-29.9-11.5-29.9-31.1c0-20.1,11.4-33.4,30.7-33.4c17.2,0,26.1,10.6,26.1,27.1c0,4.4-0.7,8.6-0.7,9H368.4z M389.4,641.8
			c0-6.6-2.8-11.5-9.4-11.5c-6.4,0-10.5,4.7-11.4,11.5H389.4z"/>
		<path class="st2" d="M521.6,679.8h-31.2v-9.2l6.1-2.9v-27.4c0-6.3-1.8-9.4-6.7-9.4c-7.5,0-12.8,6-12.8,6v30.9l6,2.9v9.2h-29.2
			v-9.2l6-2.9v-27.4c0-6.3-1.6-9.4-6.6-9.4c-7.5,0-12.9,6-12.9,6v30.9l6.1,2.9v9.2h-32.2v-9.2l8.9-2.9v-37.4l-8.7-2.9v-9.2l24.1-0.6
			l0.8,8.2c0,0,10-9.3,20.1-9.3c8.2,0,13.2,3.8,15.9,9.9c2-2,10.6-9.9,20.8-9.9c12.1,0,17.7,7.8,17.7,20.7v30.5l7.8,2.9V679.8z"/>
		<path class="st2" d="M587.4,647.6c0,20.7-12.1,33.4-30.7,33.4c-18.8,0-29.4-9.8-29.4-31.7c0-20.7,12.3-32.8,31.1-32.8
			C577,616.5,587.4,627.8,587.4,647.6z M545.1,648.8c0,12.7,3.7,18.4,12.1,18.4c8.3,0,12.3-5.2,12.3-19c0-11.7-3.5-17.8-11.7-17.8
			C549.4,630.3,545.1,634.9,545.1,648.8z"/>
		<path class="st2" d="M592,618.2l26.5-0.6v39.7c0,6.3,1.8,9.2,7,9.2c7.5,0,13-6.2,13-6.2v-30.1l-9.2-2.9v-9.2l26.5-0.6v50.1
			l9.2,2.3v9l-24.3,0.8l-1.1-8.1c0,0-9.2,9.2-20.1,9.2c-11.5,0-18.2-7.7-18.2-20.6v-30.1l-9.2-2.9V618.2z"/>
		<path class="st2" d="M715.1,673.9c-5.6,4.1-12.1,7.1-19.6,7.1c-13.2,0-17-9.2-17-22.5v-26.5h-10.7v-11.2l10.7-1.5v-15.9l17.3-3.1
			v19h16.1v12.7h-16.1v25.3c0,7.4,1.3,10.4,6.1,10.4c3.1,0,7.6-1.8,9.1-2.7L715.1,673.9z"/>
		<path class="st2" d="M743.9,624.3c3.3-2.8,10.8-7.8,19.3-7.8c11.7,0,18.1,7.8,18.1,20.7v30.5l8.1,2.9v9.2H758v-9.2l6-2.8V640
			c0-5.8-2.3-9.2-7.6-9.2c-6.4,0-12.6,6.1-12.6,6.1v30.9l6.1,2.9v9.2h-32.6v-9.2l9.2-2.9V603l-9.2-2.3v-9.2l26.5-0.9V624.3z"/>
		<path class="st2" d="M26.4,771.8c0,13.2,3.8,18.4,15.1,18.4c12.2,0,14.9-6.6,14.9-20.1v-34.5l-9-3.5v-9.8l35.5-0.6v10.4l-8.6,3.5
			v34.5c0,22.2-8.5,34.2-33.3,34.2c-23.1,0-32.4-10.2-32.4-32.5v-36.3L0,732.1v-9.8l35.3-0.6v10.4l-9,3.5V771.8z"/>
		<path class="st2" d="M114.8,748.6c0,0,10.9-8.9,21.2-8.9c11.2,0,17.5,7.9,17.5,20.5v30.5l8.1,2.9v9.2h-31.7v-9.2l6.3-2.9v-27.4
			c0-5.3-3-9.2-7.8-9.2c-7.1,0-12.3,6.6-12.3,6.6v30.1l6.3,2.9v9.2H89.6v-9.2l9.2-2.9v-37.4l-9.2-2.9v-9.2l24.4-0.6L114.8,748.6z"/>
		<path class="st2" d="M201.9,793.7v9.2h-34.5v-9.2l9.2-2.9v-37.4l-9.2-2.9v-9.2l26.5-0.6v50.1L201.9,793.7z M184.4,711.3
			c6,0,9.7,3.1,9.7,10.4c0,6.8-5,10.5-9.7,10.5c-6.2,0-9.9-3.7-9.9-10.5C174.5,715.1,179.2,711.3,184.4,711.3z"/>
		<path class="st2" d="M242.4,741.3l30.2-0.6v9.8L266,752l-18.5,50.9h-19l-18.2-50.5l-5.5-1.8v-9.2l30.2-0.6v9.8l-6.4,1.1l10.5,34
			L249,752l-6.7-1.5V741.3z"/>
		<path class="st2" d="M291.6,775.6c0.7,9.2,6,14.6,13.9,14.6c9.6,0,19.3-5.4,19.3-5.4l4.9,9.6c0,0-11.5,9.7-26.2,9.7
			c-19.8,0-29.9-11.5-29.9-31.1c0-20.1,11.4-33.4,30.7-33.4c17.2,0,26.1,10.6,26.1,27.1c0,4.4-0.7,8.6-0.7,9H291.6z M312.7,764.9
			c0-6.6-2.8-11.5-9.4-11.5c-6.4,0-10.5,4.7-11.4,11.5H312.7z"/>
		<path class="st2" d="M362.6,748.6c0,0,8.3-9.1,16-9.1c6.3,0,10.7,2.1,10.7,2.1l-0.9,22.1H378l-1.7-9.8c-6.7,0-12.4,6.4-12.4,6.4
			v30.4l11.5,2.9v9.2h-38v-9.2l9.2-2.9v-37.4l-9.2-2.9v-9.2l24.2-0.6L362.6,748.6z"/>
		<path class="st2" d="M404.4,790.2c0,0,4,1.1,9.7,1.1c6.3,0,9.4-2,9.4-5.6c0-9.4-30.7-6-30.7-26.5c0-14.4,11.5-19.7,23.7-19.7
			c10.4,0,21.4,3.5,21.4,3.5l-0.5,17.3h-9.8l-1.7-6.9c0,0-3.3-1.2-7.9-1.2c-4.9,0-7.9,2.1-7.9,5.9c0,9.3,30.7,5.3,30.7,25.2
			c0,13.2-10.7,20.7-26.5,20.7c-10.9,0-21.2-2.5-21.2-2.5v-18.8h10.4L404.4,790.2z"/>
		<path class="st2" d="M482.2,793.7v9.2h-34.5v-9.2l9.2-2.9v-37.4l-9.2-2.9v-9.2l26.5-0.6v50.1L482.2,793.7z M464.7,711.3
			c6,0,9.7,3.1,9.7,10.4c0,6.8-4.9,10.5-9.7,10.5c-6.2,0-9.9-3.7-9.9-10.5C454.8,715.1,459.5,711.3,464.7,711.3z"/>
		<path class="st2" d="M533.5,796.9c-5.6,4.1-12.1,7.1-19.6,7.1c-13.2,0-17-9.2-17-22.5v-26.5h-10.7v-11.2l10.7-1.5v-15.9l17.3-3.1
			v19h16.1v12.7h-16.1v25.3c0,7.4,1.3,10.4,6.1,10.4c3.1,0,7.6-1.8,9.1-2.7L533.5,796.9z"/>
		<path class="st2" d="M534.1,741.3l30.7-0.6v9.8l-6.4,1.1l10.3,32.2l9.8-31.9l-6.7-1.5v-9.2l31-0.6v9.8l-7.1,1.5l-16.9,47.2
			c-5.5,15.2-13,31.3-31.3,31.3c-3.9,0-11.2-0.9-11.2-0.9l1.6-12.3h7.5c9.2,0,13.5-9.8,15.4-14.3l-20.5-50.7l-6.1-1.8V741.3z"/>
	</g>
</g>
<g id="_x0022_U_x0022_">
	<g>
		<defs>
			<path id="SVGID_1_" d="M709.3,0v349c0,66.7-43.5,109.8-110.9,109.8S487.4,415.8,487.4,349V75.8h9.3V349
				c0,61.1,39.9,100.5,101.6,100.5S700,410.1,700,349V75.8h-37.7V349c0,38.6-20.8,62.8-63.9,62.8s-63.9-24.2-63.9-62.8V37.8h-84.6
				v300.7c0,96.1,55.5,153.4,148.5,153.4s148.5-57.3,148.5-153.4V38h9.3v300.4c0,101.9-59,162.7-157.8,162.7
				c-98.8,0-157.8-60.8-157.8-162.7V0h-37.7v338.4c0,121,73.7,200.5,195.5,200.5c121.8,0,195.5-79.4,195.5-200.5V0H709.3z"/>
		</defs>
		<clipPath id="SVGID_2_">
			<use xlink:href="#SVGID_1_"  style="overflow:visible;"/>
		</clipPath>
		<g class="st3">
			<g>
				<path class="st4" d="M470.4-27.5v375.3c0,76.9,52.1,128.6,129.7,128.6c77.6,0,129.7-51.7,129.7-128.6V-27.5"/>
				<g>
					<g>
						<rect x="376.3" y="-27.5" class="st5" width="188.3" height="12.5"/>
						<rect x="376.3" y="-21.5" class="st6" width="188.3" height="12.5"/>
						<rect x="376.3" y="-15.5" class="st6" width="188.3" height="12.5"/>
						<rect x="376.3" y="-9.5" class="st7" width="188.3" height="12.5"/>
						<rect x="376.3" y="-3.5" class="st8" width="188.3" height="12.5"/>
						<rect x="376.3" y="2.5" class="st9" width="188.3" height="12.5"/>
						<rect x="376.3" y="8.5" class="st10" width="188.3" height="12.5"/>
						<rect x="376.3" y="14.4" class="st11" width="188.3" height="12.5"/>
						<rect x="376.3" y="20.4" class="st11" width="188.3" height="12.5"/>
						<rect x="376.3" y="26.4" class="st12" width="188.3" height="12.5"/>
						<rect x="376.3" y="32.4" class="st13" width="188.3" height="12.5"/>
						<rect x="376.3" y="38.4" class="st14" width="188.3" height="12.5"/>
						<rect x="376.3" y="44.4" class="st14" width="188.3" height="12.5"/>
						<rect x="376.3" y="50.4" class="st15" width="188.3" height="12.5"/>
						<rect x="376.3" y="56.3" class="st16" width="188.3" height="12.5"/>
						<rect x="376.3" y="62.3" class="st17" width="188.3" height="12.5"/>
						<rect x="376.3" y="68.3" class="st18" width="188.3" height="12.5"/>
						<rect x="376.3" y="74.3" class="st19" width="188.3" height="12.5"/>
						<rect x="376.3" y="80.3" class="st20" width="188.3" height="12.5"/>
						<rect x="376.3" y="86.3" class="st21" width="188.3" height="12.5"/>
						<rect x="376.3" y="92.3" class="st21" width="188.3" height="12.5"/>
						<rect x="376.3" y="98.2" class="st22" width="188.3" height="12.5"/>
						<rect x="376.3" y="104.2" class="st23" width="188.3" height="12.5"/>
						<rect x="376.3" y="110.2" class="st23" width="188.3" height="12.5"/>
						<rect x="376.3" y="116.2" class="st24" width="188.3" height="12.5"/>
						<rect x="376.3" y="122.2" class="st25" width="188.3" height="12.5"/>
						<rect x="376.3" y="128.2" class="st25" width="188.3" height="12.5"/>
						<rect x="376.3" y="134.2" class="st26" width="188.3" height="12.5"/>
						<rect x="376.3" y="140.1" class="st27" width="188.3" height="12.5"/>
						<rect x="376.3" y="146.1" class="st28" width="188.3" height="12.5"/>
						<rect x="376.3" y="152.1" class="st29" width="188.3" height="12.5"/>
						<rect x="376.3" y="158.1" class="st30" width="188.3" height="12.5"/>
						<rect x="376.3" y="164.1" class="st31" width="188.3" height="12.5"/>
						<rect x="376.3" y="170.1" class="st32" width="188.3" height="12.5"/>
						<rect x="376.3" y="176.1" class="st33" width="188.3" height="12.5"/>
						<rect x="376.3" y="182" class="st34" width="188.3" height="12.5"/>
						<rect x="376.3" y="188" class="st35" width="188.3" height="12.5"/>
						<rect x="376.3" y="194" class="st36" width="188.3" height="12.5"/>
						<rect x="376.3" y="200" class="st37" width="188.3" height="12.5"/>
						<rect x="376.3" y="206" class="st38" width="188.3" height="12.5"/>
						<rect x="376.3" y="212" class="st39" width="188.3" height="12.5"/>
						<rect x="376.3" y="218" class="st40" width="188.3" height="12.5"/>
						<rect x="376.3" y="223.9" class="st40" width="188.3" height="12.5"/>
						<rect x="376.3" y="229.9" class="st41" width="188.3" height="12.5"/>
						<rect x="376.3" y="235.9" class="st41" width="188.3" height="12.5"/>
						<rect x="376.3" y="241.9" class="st42" width="188.3" height="12.5"/>
						<rect x="376.3" y="247.9" class="st43" width="188.3" height="12.5"/>
						<rect x="376.3" y="253.9" class="st43" width="188.3" height="12.5"/>
						<rect x="376.3" y="259.9" class="st44" width="188.3" height="12.5"/>
						<rect x="376.3" y="265.8" class="st44" width="188.3" height="12.5"/>
						<rect x="376.3" y="271.8" class="st45" width="188.3" height="12.5"/>
						<rect x="376.3" y="277.8" class="st45" width="188.3" height="12.5"/>
						<rect x="376.3" y="283.8" class="st46" width="188.3" height="12.5"/>
						<rect x="376.3" y="289.8" class="st47" width="188.3" height="12.5"/>
						<rect x="376.3" y="295.8" class="st48" width="188.3" height="12.5"/>
						<rect x="376.3" y="301.8" class="st49" width="188.3" height="12.5"/>
						<rect x="376.3" y="307.7" class="st50" width="188.3" height="12.5"/>
						<rect x="376.3" y="313.7" class="st51" width="188.3" height="12.5"/>
						<rect x="376.3" y="319.7" class="st52" width="188.3" height="12.5"/>
						<rect x="376.3" y="325.7" class="st53" width="188.3" height="12.5"/>
						<rect x="376.3" y="331.7" class="st54" width="188.3" height="12.5"/>
						<path class="st54" d="M376.3,351.4c-0.1-6.7,0-9-0.1-13.7h188.3c0,3.6,0,9.6,0,11.2L376.3,351.4z"/>
						<path class="st55" d="M376.6,360.8c-0.3-6.3-0.4-14-0.3-17.1h188.3c0,5.2,0.1,5.8,0.1,7.8L376.6,360.8z"/>
						<path class="st55" d="M377.3,370.3c-0.5-6.6-0.9-13.2-0.9-19.7l188.3-2c0,1.8,0.1,3.5,0.2,5.2L377.3,370.3z"/>
						<path class="st56" d="M378.3,379.9c-0.8-6.7-1.4-13.3-1.7-19.9l188.1-8.8c0.1,1.7,0.2,3.4,0.4,4.9L378.3,379.9z"/>
						<path class="st57" d="M379.7,389.6c-1.2-6.8-1.9-13.4-2.5-20.1l187.6-15.8c0.2,1.6,0.3,3.2,0.6,4.6L379.7,389.6z"/>
						<path class="st58" d="M381.6,399.4c-1.5-6.8-2.5-13.5-3.4-20.2L565.1,356c0.2,1.5,0.4,3,0.7,4.3L381.6,399.4z"/>
						<path class="st59" d="M383.9,409.2c-1.8-6.8-3.2-13.6-4.3-20.3l185.8-30.7c0.2,1.4,0.5,2.8,0.8,4L383.9,409.2z"/>
						<path class="st60" d="M386.7,419c-2.1-6.8-3.8-13.6-5.2-20.4l184.3-38.4c0.3,1.4,0.6,2.6,0.9,3.7L386.7,419z"/>
						<path class="st61" d="M389.9,428.8c-2.4-6.8-4.5-13.6-6.2-20.4L566.2,362c0.3,1.3,0.6,2.4,1,3.4L389.9,428.8z"/>
						<path class="st61" d="M393.7,438.5c-2.8-6.7-5.2-13.5-7.2-20.4l180.3-54.5c0.3,1.2,0.7,2.2,1.1,3.1L393.7,438.5z"/>
						<path class="st62" d="M397.9,448.2c-3.1-6.7-5.9-13.4-8.3-20.2l177.6-62.7c0.4,1,0.7,2,1.1,2.8L397.9,448.2z"/>
						<path class="st62" d="M402.7,457.8c-3.5-6.6-6.6-13.3-9.4-20l174.4-71.1c0.4,0.9,0.8,1.8,1.2,2.5L402.7,457.8z"/>
						<path class="st63" d="M408,467.1c-3.9-6.4-7.3-13-10.4-19.7L568.3,368c0.4,0.9,0.8,1.6,1.2,2.3L408,467.1z"/>
						<path class="st64" d="M413.8,476.3c-4.2-6.3-8.1-12.7-11.5-19.3l166.6-87.8c0.4,0.8,0.8,1.5,1.2,2.1L413.8,476.3z"/>
						<path class="st65" d="M420.1,485.2c-4.6-6.1-8.7-12.4-12.6-18.8l161.9-96.2c0.4,0.7,0.8,1.3,1.3,1.9L420.1,485.2z"/>
						<path class="st66" d="M427,493.8c-4.9-5.8-9.4-11.9-13.6-18.2l156.7-104.4c0.4,0.6,0.8,1.2,1.3,1.7L427,493.8z"/>
						<path class="st67" d="M434.2,502c-5.2-5.6-10.1-11.4-14.6-17.5L570.7,372c0.4,0.6,0.9,1.1,1.3,1.6L434.2,502z"/>
						<path class="st68" d="M441.9,509.8c-5.5-5.3-10.7-10.9-15.5-16.7l144.9-120.3l1.4,1.5L441.9,509.8z"/>
						<path class="st69" d="M450,517.2c-5.8-5-11.2-10.3-16.4-15.9l138.3-127.8c0.5,0.5,0.9,1,1.5,1.4L450,517.2z"/>
						<path class="st69" d="M458.5,524.2c-6-4.7-11.7-9.7-17.2-15l131.3-135c0.5,0.5,1,0.9,1.6,1.4L458.5,524.2z"/>
						<path class="st70" d="M467.3,530.7c-6.2-4.3-12.2-9-17.9-14l124-141.7c0.5,0.4,1.1,0.9,1.7,1.3L467.3,530.7z"/>
						<path class="st70" d="M476.3,536.7c-6.4-4-12.5-8.3-18.5-13l116.3-148.1c0.6,0.4,1.2,0.9,1.9,1.3L476.3,536.7z"/>
						<path class="st71" d="M485.6,542.1c-6.5-3.6-12.8-7.6-19-11.9L575,376.2c0.6,0.4,1.3,0.9,2.1,1.3L485.6,542.1z"/>
						<path class="st72" d="M495,547.1c-6.6-3.3-13.1-6.9-19.4-10.9l100.4-159.3c0.7,0.4,1.5,0.8,2.3,1.3L495,547.1z"/>
						<path class="st73" d="M504.6,551.5c-6.7-2.9-13.3-6.2-19.8-9.8L577,377.5c0.8,0.4,1.6,0.8,2.5,1.3L504.6,551.5z"/>
						<path class="st74" d="M514.2,555.4c-6.7-2.6-13.4-5.5-20-8.7l83.9-168.6c0.9,0.4,1.8,0.8,2.8,1.2L514.2,555.4z"/>
						<path class="st75" d="M524,558.9c-6.8-2.2-13.5-4.8-20.2-7.7l75.6-172.5c1,0.4,2,0.8,3.1,1.2L524,558.9z"/>
						<path class="st75" d="M533.7,561.8c-6.8-1.9-13.5-4.1-20.2-6.7l67.3-175.9c1.1,0.4,2.2,0.7,3.4,1.1L533.7,561.8z"/>
						<path class="st76" d="M543.4,564.3c-6.7-1.6-13.5-3.5-20.3-5.7l59.2-178.8c1.2,0.3,2.4,0.7,3.7,1L543.4,564.3z"/>
						<path class="st76" d="M553.1,566.3c-6.7-1.3-13.5-2.9-20.2-4.7l51.1-181.2c1.3,0.3,2.6,0.7,4,0.9L553.1,566.3z"/>
						<path class="st77" d="M562.8,567.9c-6.7-1-13.4-2.3-20.1-3.8l43.3-183.3c1.3,0.3,2.8,0.6,4.3,0.8L562.8,567.9z"/>
						<path class="st78" d="M572.4,569.1c-6.6-0.7-13.3-1.7-20-3l35.6-184.9c1.4,0.3,3,0.5,4.6,0.7L572.4,569.1z"/>
						<path class="st79" d="M581.8,570c-6.5-0.5-13.1-1.1-19.8-2.2l28.1-186.2c1.5,0.3,3.2,0.4,4.9,0.5L581.8,570z"/>
						<path class="st79" d="M591.2,570.5c-6.5-0.2-13-0.6-19.6-1.4l20.8-187.2c1.6,0.2,3.4,0.3,5.2,0.4L591.2,570.5z"/>
						<path class="st80" d="M600.5,570.6c-6.4-0.1-12.9-0.2-19.4-0.7l13.7-187.8c1.7,0.2,3.6,0.2,5.5,0.2L600.5,570.6z"/>
						<path class="st80" d="M609.8,570.5c-6.4,0.2-12.9,0.2-19.3,0l6.9-188.2c1.9,0.1,3.7,0.1,5.6,0L609.8,570.5z"/>
						<path class="st81" d="M619.2,569.9c-6.6,0.5-13,0.7-19.4,0.7l0.3-188.3c1.9-0.1,3.7-0.1,5.5-0.2L619.2,569.9z"/>
						<path class="st82" d="M628.7,569c-6.6,0.8-13.2,1.2-19.6,1.4l-6.3-188.2c1.8-0.1,3.6-0.2,5.2-0.4L628.7,569z"/>
						<path class="st83" d="M638.3,567.8c-6.7,1.1-13.3,1.7-19.8,2.2l-13.1-187.8c1.7-0.1,3.4-0.3,4.9-0.5L638.3,567.8z"/>
						<path class="st83" d="M647.9,566.1c-6.7,1.3-13.4,2.3-20,3l-20.2-187.2c1.7-0.1,3.2-0.4,4.6-0.7L647.9,566.1z"/>
						<path class="st84" d="M657.6,564.1c-6.7,1.6-13.5,2.9-20.1,3.8L610,381.6c1.6-0.2,3-0.5,4.3-0.8L657.6,564.1z"/>
						<path class="st84" d="M667.4,561.6c-6.8,1.9-13.5,3.5-20.2,4.7l-34.9-185c1.5-0.3,2.8-0.6,4-0.9L667.4,561.6z"/>
						<path class="st85" d="M677.1,558.6c-6.8,2.2-13.5,4.1-20.3,5.7l-42.6-183.4c1.3-0.3,2.6-0.7,3.7-1L677.1,558.6z"/>
						<path class="st86" d="M686.8,555.1c-6.7,2.5-13.5,4.8-20.2,6.7l-50.5-181.4c1.2-0.4,2.3-0.7,3.4-1.1L686.8,555.1z"/>
						<path class="st87" d="M696.5,551.2c-6.7,2.9-13.4,5.4-20.2,7.7l-58.5-179c1.1-0.4,2.1-0.8,3.1-1.2L696.5,551.2z"/>
						<path class="st87" d="M706,546.7c-6.6,3.3-13.3,6.2-20,8.7l-66.7-176.1c1-0.4,2-0.8,2.8-1.2L706,546.7z"/>
						<path class="st88" d="M715.5,541.7c-6.5,3.6-13.1,6.9-19.8,9.8l-74.9-172.8c0.9-0.4,1.8-0.8,2.5-1.3L715.5,541.7z"/>
						<path class="st89" d="M724.7,536.2c-6.3,4-12.8,7.6-19.4,10.9l-83.2-168.9c0.8-0.4,1.6-0.9,2.3-1.3L724.7,536.2z"/>
						<path class="st89" d="M733.7,530.2c-6.2,4.3-12.5,8.3-19,11.9l-91.5-164.6c0.8-0.4,1.4-0.9,2.1-1.3L733.7,530.2z"/>
						<path class="st90" d="M742.5,523.7c-6,4.7-12.2,9-18.5,13l-99.7-159.7c0.7-0.4,1.3-0.9,1.9-1.3L742.5,523.7z"/>
						<path class="st91" d="M750.9,516.7c-5.7,5-11.7,9.7-17.9,14L625.2,376.3c0.6-0.4,1.2-0.9,1.7-1.3L750.9,516.7z"/>
						<path class="st92" d="M759,509.2c-5.5,5.3-11.2,10.3-17.2,15L626.1,375.6c0.6-0.4,1.1-0.9,1.6-1.4L759,509.2z"/>
						<path class="st92" d="M766.7,501.4c-5.2,5.6-10.7,10.9-16.4,15.9L626.9,375c0.5-0.5,1-0.9,1.5-1.4L766.7,501.4z"/>
						<path class="st93" d="M773.9,493.1c-4.9,5.8-10.1,11.5-15.5,16.7L627.6,374.3l1.4-1.5L773.9,493.1z"/>
						<path class="st94" d="M780.7,484.5c-4.5,6.1-9.4,11.9-14.6,17.5L628.3,373.6c0.5-0.5,0.9-1,1.3-1.6L780.7,484.5z"/>
						<path class="st95" d="M786.9,475.6c-4.2,6.3-8.7,12.4-13.6,18.2L628.9,372.9c0.4-0.5,0.9-1.1,1.3-1.7L786.9,475.6z"/>
						<path class="st96" d="M792.7,466.4c-3.8,6.4-8,12.7-12.6,18.8L629.6,372.1c0.4-0.6,0.8-1.2,1.3-1.9L792.7,466.4z"/>
						<path class="st97" d="M798,457c-3.5,6.6-7.3,13-11.5,19.3l-156.3-105c0.4-0.6,0.8-1.3,1.2-2.1L798,457z"/>
						<path class="st98" d="M802.7,447.4c-3.1,6.7-6.6,13.3-10.4,19.7l-161.5-96.8c0.4-0.7,0.8-1.4,1.2-2.3L802.7,447.4z"/>
						<path class="st98" d="M806.9,437.8c-2.7,6.7-5.9,13.4-9.4,20l-166.2-88.5c0.4-0.8,0.8-1.6,1.2-2.5L806.9,437.8z"/>
						<path class="st99" d="M810.6,428c-2.4,6.8-5.1,13.6-8.3,20.2l-170.4-80.1c0.4-0.8,0.8-1.8,1.1-2.8L810.6,428z"/>
						<path class="st99" d="M813.8,418.2c-2,6.8-4.4,13.6-7.2,20.4l-174.1-71.7c0.4-0.9,0.8-1.9,1.1-3.1L813.8,418.2z"/>
						<path class="st100" d="M816.6,408.4c-1.7,6.8-3.8,13.6-6.2,20.4L633,365.4c0.4-1,0.7-2.1,1-3.4L816.6,408.4z"/>
						<path class="st100" d="M818.8,398.6c-1.4,6.8-3.1,13.6-5.2,20.4l-180.1-55.2c0.4-1.1,0.7-2.4,0.9-3.7L818.8,398.6z"/>
						<path class="st101" d="M820.7,388.8c-1.1,6.7-2.5,13.5-4.3,20.4l-182.3-47c0.3-1.2,0.6-2.6,0.8-4L820.7,388.8z"/>
						<path class="st102" d="M822.1,379.1c-0.9,6.7-1.9,13.4-3.4,20.2l-184.2-39.1c0.3-1.3,0.5-2.8,0.7-4.3L822.1,379.1z"/>
						<path class="st102" d="M823.1,369.5c-0.6,6.7-1.4,13.3-2.5,20.1l-185.7-31.3c0.3-1.4,0.4-3,0.6-4.6L823.1,369.5z"/>
						<path class="st103" d="M823.7,360c-0.3,6.6-0.9,13.2-1.7,19.9l-186.8-23.7c0.2-1.5,0.3-3.2,0.4-4.9L823.7,360z"/>
						<path class="st103" d="M824,350.6c0,6.5-0.4,13-0.9,19.7l-187.6-16.4c0.1-1.7,0.2-3.4,0.2-5.2L824,350.6z"/>
						<path class="st104" d="M824,343.6c0,3.1,0,10.8-0.3,17.1l-188.1-9.3c0-2,0.1-2.6,0.1-7.8H824z"/>
						<path class="st104" d="M824,337.7c0,4.7,0.1,7-0.1,13.7l-188.3-2.5c0.1-1.6,0-7.6,0-11.2H824z"/>
						<rect x="635.7" y="331.7" class="st105" width="188.3" height="12.5"/>
						<rect x="635.7" y="325.7" class="st106" width="188.3" height="12.5"/>
						<rect x="635.7" y="319.7" class="st106" width="188.3" height="12.5"/>
						<rect x="635.7" y="313.7" class="st107" width="188.3" height="12.5"/>
						<rect x="635.7" y="307.7" class="st108" width="188.3" height="12.5"/>
						<rect x="635.7" y="301.8" class="st109" width="188.3" height="12.5"/>
						<rect x="635.7" y="295.8" class="st110" width="188.3" height="12.5"/>
						<rect x="635.7" y="289.8" class="st110" width="188.3" height="12.5"/>
						<rect x="635.7" y="283.8" class="st111" width="188.3" height="12.5"/>
						<rect x="635.7" y="277.8" class="st111" width="188.3" height="12.5"/>
						<rect x="635.7" y="271.8" class="st112" width="188.3" height="12.5"/>
						<rect x="635.7" y="265.8" class="st113" width="188.3" height="12.5"/>
						<rect x="635.7" y="259.9" class="st114" width="188.3" height="12.5"/>
						<rect x="635.7" y="253.9" class="st115" width="188.3" height="12.5"/>
						<rect x="635.7" y="247.9" class="st116" width="188.3" height="12.5"/>
						<rect x="635.7" y="241.9" class="st117" width="188.3" height="12.5"/>
						<rect x="635.7" y="235.9" class="st117" width="188.3" height="12.5"/>
						<rect x="635.7" y="229.9" class="st118" width="188.3" height="12.5"/>
						<rect x="635.7" y="223.9" class="st119" width="188.3" height="12.5"/>
						<rect x="635.7" y="218" class="st119" width="188.3" height="12.5"/>
						<rect x="635.7" y="212" class="st120" width="188.3" height="12.5"/>
						<rect x="635.7" y="206" class="st121" width="188.3" height="12.5"/>
						<rect x="635.7" y="200" class="st122" width="188.3" height="12.5"/>
						<rect x="635.7" y="194" class="st122" width="188.3" height="12.5"/>
						<rect x="635.7" y="188" class="st123" width="188.3" height="12.5"/>
						<rect x="635.7" y="182" class="st124" width="188.3" height="12.5"/>
						<rect x="635.7" y="176.1" class="st125" width="188.3" height="12.5"/>
						<rect x="635.7" y="170.1" class="st126" width="188.3" height="12.5"/>
						<rect x="635.7" y="164.1" class="st127" width="188.3" height="12.5"/>
						<rect x="635.7" y="158.1" class="st128" width="188.3" height="12.5"/>
						<rect x="635.7" y="152.1" class="st129" width="188.3" height="12.5"/>
						<rect x="635.7" y="146.1" class="st130" width="188.3" height="12.5"/>
						<rect x="635.7" y="140.1" class="st131" width="188.3" height="12.5"/>
						<rect x="635.7" y="134.2" class="st132" width="188.3" height="12.5"/>
						<rect x="635.7" y="128.2" class="st133" width="188.3" height="12.5"/>
						<rect x="635.7" y="122.2" class="st134" width="188.3" height="12.5"/>
						<rect x="635.7" y="116.2" class="st135" width="188.3" height="12.5"/>
						<rect x="635.7" y="110.2" class="st136" width="188.3" height="12.5"/>
						<rect x="635.7" y="104.2" class="st137" width="188.3" height="12.5"/>
						<rect x="635.7" y="98.2" class="st138" width="188.3" height="12.5"/>
						<rect x="635.7" y="92.3" class="st139" width="188.3" height="12.5"/>
						<rect x="635.7" y="86.3" class="st140" width="188.3" height="12.5"/>
						<rect x="635.7" y="80.3" class="st141" width="188.3" height="12.5"/>
						<rect x="635.7" y="74.3" class="st142" width="188.3" height="12.5"/>
						<rect x="635.7" y="68.3" class="st143" width="188.3" height="12.5"/>
						<rect x="635.7" y="62.3" class="st144" width="188.3" height="12.5"/>
						<rect x="635.7" y="56.3" class="st145" width="188.3" height="12.5"/>
						<rect x="635.7" y="50.4" class="st146" width="188.3" height="12.5"/>
						<rect x="635.7" y="44.4" class="st147" width="188.3" height="12.5"/>
						<rect x="635.7" y="38.4" class="st148" width="188.3" height="12.5"/>
						<rect x="635.7" y="32.4" class="st149" width="188.3" height="12.5"/>
						<rect x="635.7" y="26.4" class="st150" width="188.3" height="12.5"/>
						<rect x="635.7" y="20.4" class="st150" width="188.3" height="12.5"/>
						<rect x="635.7" y="14.4" class="st151" width="188.3" height="12.5"/>
						<rect x="635.7" y="8.5" class="st151" width="188.3" height="12.5"/>
						<rect x="635.7" y="2.5" class="st151" width="188.3" height="12.5"/>
						<rect x="635.7" y="-3.5" class="st151" width="188.3" height="12.5"/>
						<rect x="635.7" y="-9.5" class="st151" width="188.3" height="12.5"/>
						<rect x="635.7" y="-15.5" class="st152" width="188.3" height="12.5"/>
						<rect x="635.7" y="-21.5" class="st152" width="188.3" height="12.5"/>
						<rect x="635.7" y="-27.5" class="st152" width="188.3" height="12.5"/>
					</g>
				</g>
			</g>
		</g>
	</g>
</g>
<g id="_x0022_B">
	<path d="M0,0h163c89.3,0,130.8,8.6,169.4,51.5c23.6,24.3,31.5,56.5,31.5,87.2c0,40.7-18.6,82.2-61.5,106.5
		c85.1,30,87.2,100.8,87.2,122.9c0,42.2-16.4,88.6-48.6,115.1c-48.6,40.8-83.6,45.8-173,45.8H0V0z M129.4,200.8h47.9
		c18.6,0,57.2,0,57.2-42.2c0-40-36.4-40-57.2-40h-47.9V200.8z M129.4,410.3H193c17.2,0,67.2,0,67.2-50.7c0-45.7-45.7-45.7-67.2-45.7
		h-63.6V410.3z"/>
</g>
</svg>
