<svg height="70" viewBox="0 0 316 70" width="316" xmlns="http://www.w3.org/2000/svg"><path d="m281.2 2.2c-18.8 0-33.9 14.3-33.9 33.7 0 19.3 15 33.7 33.9 33.7s33.9-14.4 33.9-33.7c0-19.4-15.2-33.7-33.9-33.7zm0 60.6c-14.7 0-26.5-11.9-26.5-26.9s11.8-26.9 26.5-26.9 26.5 11.9 26.5 26.9-11.9 26.9-26.5 26.9zm-252.7-54.9c-4.4-3.8-9.9-4.6-16.4-4.6h-11.8v65.2h7.2v-28.3h6.4c14.9 0 20.6-9.1 20.6-18.3 0-4.1-1.2-9.9-6-14zm-15 25.4h-6v-23.2h5.4c4.7 0 14.4 1 14.4 11.3-.1 7.6-5.2 11.9-13.8 11.9zm61.7-31.1c-18.8 0-33.9 14.3-33.9 33.7 0 19.3 15 33.7 33.9 33.7s33.9-14.4 33.9-33.7c0-19.4-15.1-33.7-33.9-33.7zm0 60.6c-14.7 0-26.5-11.9-26.5-26.9s11.8-26.9 26.5-26.9 26.5 11.9 26.5 26.9-11.8 26.9-26.5 26.9zm75.6-59.5h-38.9v6.8h15.8v58.3h7.2v-58.3h15.8v-6.8zm-2.2 65.2h8l7.8-18.4h27.8l7.6 18.4h8l-29.2-68.3zm18.7-25.2 11.1-26.1 10.9 26.1zm38.3-33.2h15.8v58.3h7.2v-58.3h15.8v-6.8h-38.9v6.8z" fill="#2c242e" fill-rule="evenodd"/></svg>