<svg enable-background="new 0 0 117.5 34.834" viewBox="0 0 117.5 34.834" xmlns="http://www.w3.org/2000/svg"><path d="m115.708 30.669c0 1.804-5.627 3.268-12.568 3.268-6.94 0-12.566-1.464-12.566-3.268 0-1.805 5.626-3.167 12.566-3.167 6.941 0 12.568 1.362 12.568 3.167" fill="#ee3124"/><g fill="#455560"><path d="m65.945 2.017-1.23 3.973c-.76-.254-2.08-.436-3.099-.436-3.541 0-5.962 2.026-5.962 7.553v10.742h-4.912v-22.143h4.912v3.334c1.281-2.115 3.561-3.729 6.919-3.729 1.233.001 2.494.261 3.372.706"/><path d="m88.538 21.634c-2.978 1.771-6.171 2.61-9.561 2.61-7.439 0-12.389-4.532-12.389-11.255 0-6.678 5.044-11.668 12.636-11.668 3.244 0 6.007.714 8.102 1.857l-1.071 4.068c-2.028-1.007-4.236-1.619-6.618-1.619-5.163 0-7.882 2.994-7.882 7.056 0 4.233 2.787 7.256 7.731 7.256 2.523 0 5.263-.858 7.034-1.972"/><path d="m35.224 20.052c3.232 0 5.596-1.594 7.465-4.295l3.558 2.382c-2.364 3.999-6.35 6.118-11.352 6.118-7.063 0-11.637-4.258-11.637-11.676 0-6.051 4.87-11.258 11.859-11.258 6.805 0 11.063 4.637 11.063 11.168v1.186h-17.835c.543 4.162 3.147 6.375 6.879 6.375m5.93-10.158c-.348-2.784-2.831-4.48-6.137-4.48-3.25 0-5.53 1.734-6.378 4.48z"/><path d="m103.14 24.241c7.188 0 12.489-4.735 12.489-11.465s-5.302-11.467-12.489-11.467c-7.188 0-12.49 4.736-12.49 11.467-.001 6.73 5.301 11.465 12.49 11.465m0-4.24c-4.496 0-7.483-3.09-7.483-7.225 0-4.136 2.987-7.226 7.483-7.226 4.495 0 7.482 3.09 7.482 7.226 0 4.135-2.987 7.225-7.482 7.225z"/><path d="m20.181 17.384c0 3.627-2.888 6.857-8.716 6.857-4.234 0-7.909-2.076-9.143-5.059l4.466-1.66c.969 1.901 2.806 2.814 4.621 2.814 2.472 0 3.922-1.274 3.922-2.616 0-4.198-11.594-3.19-11.594-10.147 0-3.378 2.849-6.264 7.76-6.264 3.33 0 5.963 1.298 7.199 3.999l-4.243 1.866c-.603-1.245-1.75-1.945-3.155-1.945-1.725 0-2.679.796-2.679 1.916 0 3.651 11.562 3.477 11.562 10.239"/></g></svg>