<?xml version="1.0" encoding="utf-8"?>
<!-- Generator: Adobe Illustrator 14.0.0, SVG Export Plug-In . SVG Version: 6.00 Build 43363)  -->
<!DOCTYPE svg PUBLIC "-//W3C//DTD SVG 1.1//EN" "http://www.w3.org/Graphics/SVG/1.1/DTD/svg11.dtd">
<svg version="1.1" id="Layer_1" xmlns="http://www.w3.org/2000/svg" xmlns:xlink="http://www.w3.org/1999/xlink" x="0px" y="0px"
	 width="117.5px" height="34.834px" viewBox="0 0 117.5 34.834" enable-background="new 0 0 117.5 34.834" xml:space="preserve">
<g>
	<path fill="#EE3124" d="M115.708,30.669c0,1.804-5.627,3.268-12.568,3.268c-6.94,0-12.566-1.464-12.566-3.268
		c0-1.805,5.626-3.167,12.566-3.167C110.081,27.502,115.708,28.864,115.708,30.669"/>
	<path fill="#455560" d="M65.945,2.017l-1.23,3.973c-0.76-0.254-2.08-0.436-3.099-0.436c-3.541,0-5.962,2.026-5.962,7.553v10.742
		h-4.912V1.706h4.912V5.04c1.281-2.115,3.561-3.729,6.919-3.729C63.806,1.312,65.067,1.572,65.945,2.017"/>
	<path fill="#455560" d="M88.538,21.634c-2.978,1.771-6.171,2.61-9.561,2.61c-7.439,0-12.389-4.532-12.389-11.255
		c0-6.678,5.044-11.668,12.636-11.668c3.244,0,6.007,0.714,8.102,1.857l-1.071,4.068c-2.028-1.007-4.236-1.619-6.618-1.619
		c-5.163,0-7.882,2.994-7.882,7.056c0,4.233,2.787,7.256,7.731,7.256c2.523,0,5.263-0.858,7.034-1.972"/>
	<path fill="#455560" d="M35.224,20.052c3.232,0,5.596-1.594,7.465-4.295l3.558,2.382c-2.364,3.999-6.35,6.118-11.352,6.118
		c-7.063,0-11.637-4.258-11.637-11.676c0-6.051,4.87-11.258,11.859-11.258c6.805,0,11.063,4.637,11.063,11.168v1.186H28.345
		C28.888,17.839,31.492,20.052,35.224,20.052 M41.154,9.894c-0.348-2.784-2.831-4.48-6.137-4.48c-3.25,0-5.53,1.734-6.378,4.48
		H41.154z"/>
	<path fill="#455560" d="M103.14,24.241c7.188,0,12.489-4.735,12.489-11.465c0-6.73-5.302-11.467-12.489-11.467
		c-7.188,0-12.49,4.736-12.49,11.467C90.649,19.506,95.951,24.241,103.14,24.241 M103.14,20.001c-4.496,0-7.483-3.09-7.483-7.225
		c0-4.136,2.987-7.226,7.483-7.226c4.495,0,7.482,3.09,7.482,7.226C110.622,16.911,107.635,20.001,103.14,20.001z"/>
	<path fill="#455560" d="M20.181,17.384c0,3.627-2.888,6.857-8.716,6.857c-4.234,0-7.909-2.076-9.143-5.059l4.466-1.66
		c0.969,1.901,2.806,2.814,4.621,2.814c2.472,0,3.922-1.274,3.922-2.616c0-4.198-11.594-3.19-11.594-10.147
		c0-3.378,2.849-6.264,7.76-6.264c3.33,0,5.963,1.298,7.199,3.999l-4.243,1.866c-0.603-1.245-1.75-1.945-3.155-1.945
		c-1.725,0-2.679,0.796-2.679,1.916C8.619,10.796,20.181,10.622,20.181,17.384"/>
</g>
</svg>
