<svg viewBox="0 0 502.5 118.93" xmlns="http://www.w3.org/2000/svg" xmlns:xlink="http://www.w3.org/1999/xlink"><radialGradient id="a" cx="1214.2" cy="1680.7" gradientTransform="matrix(-1.223 -.2372 .15644 -.94671 2438.6 3564.7)" gradientUnits="userSpaceOnUse" r="22.495"><stop offset="0" stop-color="#6700e8"/><stop offset=".39936" stop-color="#5c00ce"/><stop offset=".70124" stop-color="#5600bf" stop-opacity=".045045"/><stop offset="1" stop-color="#220047" stop-opacity="0"/></radialGradient><linearGradient id="b" gradientUnits="userSpaceOnUse" x1="-787.7624878" x2="-772.4915934" y1="433.29176" y2="433.29176"><stop offset="0" stop-color="#5500bd"/><stop offset="1" stop-color="#5200b2"/></linearGradient><linearGradient id="c" gradientUnits="userSpaceOnUse" x1="-306.930568" x2="-284.121804" y1="461.894194" y2="304.123412"><stop offset="0" stop-color="#47008d"/><stop offset="1" stop-color="#5100b3"/></linearGradient><radialGradient id="d" cx="1159.1" cy="2013.9" gradientTransform="matrix(-.21925 .74474 -.78219 -.23028 1523.9 90.984)" gradientUnits="userSpaceOnUse" r="24.948"><stop offset="0" stop-color="#6000d8"/><stop offset=".20886" stop-color="#5c00cd"/><stop offset=".37415" stop-color="#5500be"/><stop offset=".721" stop-color="#2d0062"/><stop offset="1" stop-color="#210045"/></radialGradient><linearGradient id="e" gradientUnits="userSpaceOnUse" x1="-508.9954818" x2="-392.493926" xlink:href="#f" y1="486.776482" y2="301.196084"/><linearGradient id="f"><stop offset="0" stop-color="#1b0041"/><stop offset=".10005" stop-color="#1b0041"/><stop offset=".20479" stop-color="#1b0041"/><stop offset=".3" stop-color="#240052"/><stop offset=".4" stop-color="#32006a"/><stop offset=".5" stop-color="#3d007d"/><stop offset=".6" stop-color="#490098"/><stop offset=".70026" stop-color="#4f00a8"/><stop offset=".80312" stop-color="#5500bc"/><stop offset=".9" stop-color="#5700c2"/><stop offset="1" stop-color="#6000da"/></linearGradient><linearGradient id="g" gradientUnits="userSpaceOnUse" x1="-417.4798902" x2="-509.3552992" y1="301.135098" y2="474.640268"><stop offset="0" stop-color="#1e0046"/><stop offset=".10005" stop-color="#2d0061"/><stop offset=".20479" stop-color="#33006b"/><stop offset=".3" stop-color="#400082"/><stop offset=".4" stop-color="#490096"/><stop offset=".5" stop-color="#5000ac"/><stop offset=".6" stop-color="#5500bd"/><stop offset=".70026" stop-color="#4f00a8"/><stop offset=".80312" stop-color="#5500bc"/><stop offset=".9" stop-color="#5700c2"/><stop offset="1" stop-color="#6000da"/></linearGradient><linearGradient id="h" gradientUnits="userSpaceOnUse" x1="-732.8628906" x2="-609.9882978" xlink:href="#f" y1="471.10308" y2="317.235402"/><linearGradient id="i" gradientUnits="userSpaceOnUse" x1="-629.5587052" x2="-727.6851792" y1="317.052444" y2="461.589264"><stop offset="0" stop-color="#1c0044"/><stop offset=".10005" stop-color="#2f0065"/><stop offset=".20479" stop-color="#34006d"/><stop offset=".3" stop-color="#3b007a"/><stop offset=".4" stop-color="#3c007a"/><stop offset=".5" stop-color="#490096"/><stop offset=".6" stop-color="#5000ab"/><stop offset=".70026" stop-color="#5400ba"/><stop offset=".80312" stop-color="#5500bc"/><stop offset=".9" stop-color="#5700c2"/><stop offset="1" stop-color="#5c00ce"/></linearGradient><linearGradient id="j" gradientUnits="userSpaceOnUse" x1="-915.5525522" x2="-787.713699" y1="397.188048" y2="397.188048"><stop offset="0" stop-color="#6700e8"/><stop offset=".5" stop-color="#6700e8"/><stop offset="1" stop-color="#6700e8"/></linearGradient><linearGradient id="k" gradientUnits="userSpaceOnUse" x1="-803.1980444" x2="-787.4026704" y1="483.971126" y2="483.971126"><stop offset="0" stop-color="#3f008b"/><stop offset="1" stop-color="#220050"/></linearGradient><linearGradient id="l" gradientUnits="userSpaceOnUse" x1="-930.7990522" x2="-915.540355" y1="309.612152" y2="309.612152"><stop offset="0" stop-color="#390080"/><stop offset=".5" stop-color="#31006e"/><stop offset="1" stop-color="#250056"/></linearGradient><linearGradient id="m" gradientUnits="userSpaceOnUse" x1="-915.9001724" x2="-900.537799" y1="385.844652" y2="385.844652"><stop offset="0" stop-color="#5a00c9"/><stop offset="1" stop-color="#4f00a8"/></linearGradient><linearGradient id="n" gradientUnits="userSpaceOnUse" x1="-1078.3058904" x2="-983.74282838" y1="429.388656" y2="429.388656"><stop offset="0" stop-color="#6700e8"/><stop offset=".50604" stop-color="#6700e8"/><stop offset="1" stop-color="#6700e8"/></linearGradient><linearGradient id="o" gradientUnits="userSpaceOnUse" x1="-1118.3431994" x2="-1031.03686152" y1="487.630286" y2="312.84441"><stop offset="0" stop-color="#4d00a1"/><stop offset="1" stop-color="#5200b4"/></linearGradient><linearGradient id="p" gradientUnits="userSpaceOnUse" x1="-1169.760496" x2="-1169.760496" y1="410.604968" y2="513.18342"><stop offset="0" stop-color="#210045"/><stop offset=".25" stop-color="#25004d"/><stop offset=".5" stop-color="#2b005c"/><stop offset=".74854" stop-color="#340071"/><stop offset="1" stop-color="#3e0088"/></linearGradient><linearGradient id="q" gradientUnits="userSpaceOnUse" x1="-1166.8453652" x2="-1153.6784878" y1="409.629192" y2="513.366378"><stop offset="0" stop-color="#5500bd"/><stop offset="1" stop-color="#5300b5"/></linearGradient><linearGradient id="r" gradientUnits="userSpaceOnUse" x1="-1192.6241474" x2="-1181.6466674" y1="393.467902" y2="386.149582"><stop offset="0" stop-color="#27005d" stop-opacity=".98039"/><stop offset=".31767" stop-color="#2b005d"/><stop offset=".59756" stop-color="#280055"/><stop offset=".80878" stop-color="#24004d"/><stop offset="1" stop-color="#230049"/></linearGradient><linearGradient id="s" gradientUnits="userSpaceOnUse" x1="-1228.5144084" x2="-1167.7662538" y1="283.083242" y2="409.873136"><stop offset="0" stop-color="#5100b2"/><stop offset="1" stop-color="#5500bd"/></linearGradient><linearGradient id="t" gradientUnits="userSpaceOnUse" x1="-1106.396042" x2="-1167.473521" y1="281.924508" y2="409.629192"><stop offset="0" stop-color="#5500bd"/><stop offset="1" stop-color="#47008d"/></linearGradient><linearGradient id="u" gradientUnits="userSpaceOnUse" x1="-1142.8229798" x2="-1131.3881048" y1="367.853782" y2="374.623228"><stop offset="0" stop-color="#1b0041"/><stop offset="1" stop-color="#21004f"/></linearGradient><linearGradient id="v" gradientUnits="userSpaceOnUse" x1="-1090.0456954" x2="-1031.383262" y1="489.215922" y2="337.604726"><stop offset="0" stop-color="#21004e"/><stop offset="1" stop-color="#39007f"/></linearGradient><linearGradient id="w" gradientUnits="userSpaceOnUse" x1="-987.66300846" x2="-976.55745786" y1="451.28263" y2="447.01361"><stop offset="0" stop-color="#2a005a"/><stop offset="1" stop-color="#210046"/></linearGradient><linearGradient id="x" gradientUnits="userSpaceOnUse" x1="-1030.12512082" x2="-944.874621" y1="312.600466" y2="486.532538"><stop offset="0" stop-color="#5500bd"/><stop offset="1" stop-color="#5000ac"/></linearGradient><linearGradient id="y" gradientUnits="userSpaceOnUse" x1="-296.806892" x2="-268.0215" y1="461.467292" y2="302.720734"><stop offset="0" stop-color="#210045"/><stop offset=".59416" stop-color="#430085"/><stop offset="1" stop-color="#5000b2"/></linearGradient><g transform="matrix(.5 0 0 .5 630.62 -139.69)"><path d="m-272.82 284.69c7.6616 1.281 12.78 5.9708 12.78 14.045 0 2.6723-1.101 6.435-1.8373 9.6153-5.1337 22.63-25.182 102.59-33.623 155.96l-7.7668-7.7668 24.719-164.16z" fill="url(#y)"/><path d="m-772.42 306.42c-10.347 2.4776-20.506 2.4096-30.493 0l15.856 16.466z" fill="#6700e8"/><path d="m-930.94 306.42c10.347 2.4776 20.506 2.4096 30.493 0l-15.856 16.466z" fill="#6700e8"/><path d="m-1020.4 306.36c23.383 59.178 60.182 148.75 78.517 182.98l-27.144-8.2945-67.165-167.97z" fill="url(#x)"/><path d="m-1041.7 306.35c7.4678 2.5018 13.662 2.6552 21.264 0l-15.113 9.2837z" fill="#6700e8"/><path d="m-1031 312.81 68.439 167.85c-4.0492 4.3854-5.855 6.6864-9.792 8.7379-19.836-51.091-41.139-102.2-59.186-152.63l-8.9087-15.103z" fill="url(#w)"/><path d="m-1089.8 489.33-20.204-7.1558 71.141-166.91 7.9282-2.4512v24.711c-11.062 31.919-39.135 101.95-58.866 151.81z" fill="url(#v)"/><path d="m-1106.6 282.03 6.7084 15.246 17.076-7.9282 6.9443-7.3183c-10.985 2.4918-20.893 2.5746-30.729 0z" fill="#6700e8"/><path d="m-1154.8 414.97-11.587 4.269-7.3183-12.807 72.573-115.87 5.1886-1.7772c7.1618-1.6184 14.973-3.354 20.061-6.7608-11.525 15.569-53.493 88.344-78.917 132.95z" fill="url(#u)"/><path d="m-1170.6 413.15 3.0493-3.0493 71.795-121.34-10.809-6.7347c-8.6682 16.146-40.638 68.392-60.986 101.85l-9.7578 18.296z" fill="url(#t)"/><path d="m-1228.5 282.03c15.916 28.207 40.349 67.667 60.986 101.85v26.224l-4.8789 4.8789-71.354-126.85z" fill="url(#s)"/><path d="m-1240.3 289.7 11.761-7.6717c-12.62 2.6914-17.899 2.8627-30.493 0l4.8789 5.4887z" fill="#6700e8"/><path d="m-1167.6 410.1-5.4887 7.9282-7.3184-3.0493c-13.625-23.55-53.678-95.287-78.672-132.95 5.0665 3.6714 11.911 5.686 19.817 6.9699z" fill="url(#r)"/><path d="m-1152.9 513.16-20.735-9.7578 1.8296-86.6 4.269-6.7085 12.807 4.8789z" fill="url(#q)"/><path d="m-1167.6 506.45-14.637 6.7085 1.8295-98.187 12.807-4.8789z" fill="url(#p)"/><path d="m-1120 489.38c25.444-51.864 53.737-121.41 78.294-183.04l10.746 6.4742-69.462 169.92-14.089 4.8122z" fill="url(#o)"/><path d="m-963.25 480.35 21.352 8.9925c-8.1908-2.0649-19.278-2.8566-30.42.0524l4.1688-10.267z" fill="#200045"/><path d="m-1078.5 429.38 15.012-6.4416c21.625.76013 43.249.74922 64.874 0l15.228 6.6302-14.177 3.0996h-70.184z" fill="url(#n)"/><path d="m-1068.5 435.71-10.08-6.3338c31.673-.48441 63.394-.44495 95.168.18863l-10.08 6.1451c-25.003-.8102-50.005-.71317-75.008 0z" fill="#200045"/><path d="m-900.44 489.38-21.345-7.3183v-164.05l6.0986-3.0493 15.246-8.538c-3.1637 60.878-3.233 121.86 0 182.96z" fill="url(#m)"/><path d="m-915.69 480.84v4.269l-15.247 4.269c2.4244-60.889 2.6556-121.87 0-182.96l15.247 8.538z" fill="url(#l)"/><path d="m-802.92 489.38 21.345-7.3183v-164.05l-6.0986-3.0493-15.247-8.538c3.1637 60.878 3.233 121.86 0 182.96z" fill="url(#k)"/><path d="m-915.63 397.52 12.816-5.7139c34.057.85838 68.155.79423 102.28 0l12.856 5.7139-15.902 3.8002h-99.346z" fill="url(#j)"/><path d="m-664.79 306.35c-59.895 0-89.783 37.447-89.783 91.898 0 68.197 45.237 91.822 89.001 91.822 51.983 0 89.249-29.249 89.249-91.65 0-60.057-35.275-92.07-88.468-92.07zm-1.7915 8.6905c.56294-.0116 1.1312 0 1.6962 0 39.558 0 68.609 26.944 68.609 83.246 0 56.231-29.013 83.17-68.533 83.17-43.12 0-68.457-30.899-68.457-83.017 0-58.944 31.219-82.672 66.684-83.398z" fill="url(#i)"/><path d="m-665 303.95c-64.688 0-98.626 41.016-98.626 94.185 0 58.196 37.05 93.69 98.531 93.69 66.468 0 98.931-40.001 98.931-93.08 0-59.18-38.768-94.795-98.835-94.795zm.19058 6.0605c51.075 0 84.942 30.726 84.942 88.392 0 59.917-35.791 88.01-85.704 88.01-42.022 0-85.457-22.681-85.457-88.163 0-52.283 28.708-88.239 86.219-88.239z" fill="url(#h)"/><path d="m-441.28 296.99c-60.789 0-102.44 34.367-102.44 101.35 0 65.71 38.747 102.42 102.69 102.42 48.426 0 101.48-24.872 101.48-101.48 0-82.684-57.955-102.28-101.73-102.28zm-.32402 7.3183c48.376 0 84.008 29.388 84.008 94.204 0 70.459-43.103 93.309-83.932 93.309-43.622 0-83.36-25.6-83.36-94.7 0-71.621 44.046-92.813 83.284-92.813z" fill="url(#g)"/><path d="m-441.68 292.93c-64.42 0-113.66 36.579-113.66 104.59 0 56.035 32.755 105.35 114.2 105.35 68.949 0 113.97-37.907 113.97-104.36 0-62.667-41.996-105.58-114.5-105.58zm.40025 6.8228c42.587 0 98.969 19.086 98.969 99.522 0 74.529-51.631 98.721-98.74 98.721-62.2 0-99.884-35.712-99.884-99.636 0-65.163 40.519-98.607 99.655-98.607z" fill="url(#e)"/><path d="m-322.2 499.84c0-7.8687 4.7851-15.186 14.378-15.186 9.1817 0 16.052 5.4912 16.052 14.262 0 10.928-7.2317 14.955-13.858 14.955-9.1617 0-16.572-4.7539-16.572-14.031z" fill="url(#d)"/><path d="m-306.88 462.57c7.4355-52.557 11.958-107.79 16.301-162.87 0-10.977 7.2554-15.27 14.576-15.27 1.283 0 3.1753.2673 3.1753.2673l-1.9912 13.166-26.08 163.25z" fill="url(#c)"/><g fill="#200045"><path d="m-1182.2 513.16 14.664-10.743 14.609 10.743s-8.0987-1.4737-14.61-1.4737c-5.8748 0-14.664 1.4737-14.664 1.4737z"/><path d="m-1120 489.4 20.456-8.8436c3.1211 3.742 5.8977 6.913 9.7311 8.7897-7.3639-1.9927-18.512-2.8867-30.184.0311z"/><path d="m-930.94 489.38c9.903-2.3864 20.044-2.492 30.455 0l-15.208-8.538z"/><path d="m-902.81 404.29-12.843-6.765c42.66.44483 85.32.5196 127.98 0l-12.826 6.725c-34.104-.45812-68.208-.43623-102.31.0402z"/></g><path d="m-787.67 480.84v4.269l15.246 4.269c-2.4244-60.889-2.6556-121.87 0-182.96l-15.246 8.538z" fill="url(#b)"/><path d="m-772.42 489.38c-9.903-2.3864-20.044-2.492-30.455 0l15.208-8.538z" fill="#200045"/><path d="m-300.16 456.4-6.7572 6.1652c4.5277-.79745 8.0291.38427 11.432 1.7557z" fill="#200045"/><ellipse cx="1215" cy="1693.1" fill="url(#a)" fill-rule="evenodd" rx="22.495" ry="21.29" transform="matrix(.66068 0 0 .60986 -1078 -734.79)"/></g></svg>